<?xml version="1.0" encoding="utf-8"?>
<svg width="1024" height="500" id="svg3317" version="1.1" viewBox="0 0 1024 500" xmlns="http://www.w3.org/2000/svg">
  <g id="layer1" transform="translate(0,-552.36218)">
    <text style="font-style: normal; font-weight: normal; font-size: 40px; line-height: 125%; font-family: Sans; letter-spacing: 0px; word-spacing: 0px; fill: rgb(0, 0, 0); fill-opacity: 1; stroke: none; white-space: pre;" x="4676.4058" y="3368.0371" id="text5084"><tspan id="tspan5086" x="4676.4058" y="3368.0371"/></text>
    <path id="path4626" d="m 0,552.36218 0,125 0,125 0,125 0,125.00002 118.15399,0 118.15399,0 118.15399,0 118.154,0 118.15399,0 118.15399,0 118.15399,0 118.15399,0 19.69296,0 19.69108,0 19.69293,0 19.6911,0 0,-125.00002 0,-125 0,-125 0,-125 -19.6911,0 -19.69293,0 -19.69108,0 -19.69296,0 -118.15399,0 -118.15399,0 -118.15399,0 -118.15399,0 -118.154,0 -118.15399,0 -118.15399,0 -118.15399,0 z" style="fill:#399ed7;fill-opacity:1;fill-rule:nonzero;stroke:none"/>
    <rect style="fill:#ffffff;fill-opacity:0.25098039;fill-rule:nonzero;stroke:none" id="rect4628" width="85.333282" height="85.333282" x="8.997984e-06" y="637.6955"/>
    <rect y="637.6955" x="85.333298" height="85.333282" width="85.333282" id="rect4630" style="fill:#ffffff;fill-opacity:0.1254902;fill-rule:nonzero;stroke:none"/>
    <rect style="fill:#ffffff;fill-opacity:0;fill-rule:nonzero;stroke:none" id="rect4632" width="85.333282" height="85.333282" x="170.66658" y="637.6955"/>
    <rect y="637.6955" x="255.99988" height="85.333282" width="85.333282" id="rect4634" style="fill:#ffffff;fill-opacity:0.25098039;fill-rule:nonzero;stroke:none"/>
    <rect y="723.02875" x="8.997984e-06" height="85.333282" width="85.333282" id="rect4636" style="fill:#ffffff;fill-opacity:0;fill-rule:nonzero;stroke:none"/>
    <rect style="fill:#ffffff;fill-opacity:0.25098039;fill-rule:nonzero;stroke:none" id="rect4638" width="85.333282" height="85.333282" x="85.333298" y="723.02875"/>
    <rect y="723.02875" x="170.66658" height="85.333282" width="85.333282" id="rect4640" style="fill:#ffffff;fill-opacity:0.37647059;fill-rule:nonzero;stroke:none"/>
    <rect style="fill:#ffffff;fill-opacity:0.1254902;fill-rule:nonzero;stroke:none" id="rect4642" width="85.333282" height="85.333282" x="255.99988" y="723.02875"/>
    <rect style="fill:#ffffff;fill-opacity:0.25098039;fill-rule:nonzero;stroke:none" id="rect4644" width="85.333282" height="85.333282" x="8.997984e-06" y="808.362"/>
    <rect y="808.362" x="85.333298" height="85.333282" width="85.333282" id="rect4646" style="fill:#ffffff;fill-opacity:0.1254902;fill-rule:nonzero;stroke:none"/>
    <rect style="fill:#ffffff;fill-opacity:0.25098039;fill-rule:nonzero;stroke:none" id="rect4648" width="85.333282" height="85.333282" x="170.66658" y="808.362"/>
    <rect y="808.362" x="255.99988" height="85.333282" width="85.333282" id="rect4650" style="fill:#ffffff;fill-opacity:0.37647059;fill-rule:nonzero;stroke:none"/>
    <rect y="893.69525" x="8.997984e-06" height="85.333282" width="85.333282" id="rect4652" style="fill:#ffffff;fill-opacity:0.1254902;fill-rule:nonzero;stroke:none"/>
    <rect style="fill:#ffffff;fill-opacity:0.25098039;fill-rule:nonzero;stroke:none" id="rect4654" width="85.333282" height="85.333282" x="85.333298" y="893.69525"/>
    <rect y="893.69525" x="170.66658" height="85.333282" width="85.333282" id="rect4656" style="fill:#ffffff;fill-opacity:0.1254902;fill-rule:nonzero;stroke:none"/>
    <rect style="fill:#ffffff;fill-opacity:0.25098039;fill-rule:nonzero;stroke:none" id="rect4658" width="85.333282" height="85.333282" x="255.99988" y="893.69525"/>
    <rect y="637.6955" x="341.33316" height="85.333282" width="85.333282" id="rect4660" style="fill:#ffffff;fill-opacity:0.1254902;fill-rule:nonzero;stroke:none"/>
    <rect style="fill:#ffffff;fill-opacity:0;fill-rule:nonzero;stroke:none" id="rect4662" width="85.333282" height="85.333282" x="341.33316" y="723.02875"/>
    <rect y="808.362" x="341.33316" height="85.333282" width="85.333282" id="rect4664" style="fill:#ffffff;fill-opacity:0.25098039;fill-rule:nonzero;stroke:none"/>
    <rect style="fill:#ffffff;fill-opacity:0.1254902;fill-rule:nonzero;stroke:none" id="rect4666" width="85.333282" height="85.333282" x="341.33316" y="893.69525"/>
    <rect y="979.02856" x="8.997984e-06" height="85.333282" width="85.333282" id="rect4668" style="fill:#ffffff;fill-opacity:0;fill-rule:nonzero;stroke:none"/>
    <rect style="fill:#ffffff;fill-opacity:0.1254902;fill-rule:nonzero;stroke:none" id="rect4670" width="85.333282" height="85.333282" x="85.333298" y="979.02856"/>
    <rect y="979.02856" x="170.66658" height="85.333282" width="85.333282" id="rect4672" style="fill:#ffffff;fill-opacity:0.25098039;fill-rule:nonzero;stroke:none"/>
    <rect style="fill:#ffffff;fill-opacity:0.37647059;fill-rule:nonzero;stroke:none" id="rect4674" width="85.333282" height="85.333282" x="255.99988" y="979.02856"/>
    <rect style="fill:#ffffff;fill-opacity:0.25098039;fill-rule:nonzero;stroke:none" id="rect4676" width="85.333282" height="85.333282" x="341.33316" y="979.02856"/>
    <rect style="fill:#ffffff;fill-opacity:0.25098039;fill-rule:nonzero;stroke:none" id="rect4678" width="85.333282" height="85.333282" x="426.66644" y="637.6955"/>
    <rect y="723.02875" x="426.66644" height="85.333282" width="85.333282" id="rect4680" style="fill:#ffffff;fill-opacity:0.1254902;fill-rule:nonzero;stroke:none"/>
    <rect style="fill:#ffffff;fill-opacity:0;fill-rule:nonzero;stroke:none" id="rect4682" width="85.333282" height="85.333282" x="426.66644" y="808.362"/>
    <rect y="893.69525" x="426.66644" height="85.333282" width="85.333282" id="rect4684" style="fill:#ffffff;fill-opacity:0.25098039;fill-rule:nonzero;stroke:none"/>
    <rect y="979.02856" x="426.66644" height="85.333282" width="85.333282" id="rect4686" style="fill:#ffffff;fill-opacity:0.1254902;fill-rule:nonzero;stroke:none"/>
    <rect y="552.36218" x="8.997984e-06" height="85.333282" width="85.333282" id="rect4688" style="fill:#ffffff;fill-opacity:0.37647059;fill-rule:nonzero;stroke:none"/>
    <rect style="fill:#ffffff;fill-opacity:0.25098039;fill-rule:nonzero;stroke:none" id="rect4690" width="85.333282" height="85.333282" x="85.333298" y="552.36218"/>
    <rect y="552.36218" x="170.66658" height="85.333282" width="85.333282" id="rect4692" style="fill:#ffffff;fill-opacity:0.37647059;fill-rule:nonzero;stroke:none"/>
    <rect style="fill:#ffffff;fill-opacity:0.1254902;fill-rule:nonzero;stroke:none" id="rect4694" width="85.333282" height="85.333282" x="255.99988" y="552.36218"/>
    <rect style="fill:#ffffff;fill-opacity:0.25098039;fill-rule:nonzero;stroke:none" id="rect4696" width="85.333282" height="85.333282" x="341.33316" y="552.36218"/>
    <rect y="552.36218" x="426.66644" height="85.333282" width="85.333282" id="rect4698" style="fill:#ffffff;fill-opacity:0.37647059;fill-rule:nonzero;stroke:none"/>
    <rect y="637.6955" x="512.00024" height="85.333282" width="85.333282" id="rect4700" style="fill:#ffffff;fill-opacity:0.3764706;fill-rule:nonzero;stroke:none"/>
    <rect style="fill:#ffffff;fill-opacity:0.25098041;fill-rule:nonzero;stroke:none" id="rect4702" width="85.333282" height="85.333282" x="597.33356" y="637.6955"/>
    <rect y="637.6955" x="682.66681" height="85.333282" width="85.333282" id="rect4704" style="fill:#ffffff;fill-opacity:0;fill-rule:nonzero;stroke:none"/>
    <rect style="fill:#ffffff;fill-opacity:0.25098039;fill-rule:nonzero;stroke:none" id="rect4706" width="85.333282" height="85.333282" x="768.00012" y="637.6955"/>
    <rect style="fill:#ffffff;fill-opacity:0;fill-rule:nonzero;stroke:none" id="rect4708" width="85.333282" height="85.333282" x="512.00024" y="723.02875"/>
    <rect y="723.02875" x="597.33356" height="85.333282" width="85.333282" id="rect4710" style="fill:#ffffff;fill-opacity:0.37254903;fill-rule:nonzero;stroke:none"/>
    <rect style="fill:#ffffff;fill-opacity:0.1254902;fill-rule:nonzero;stroke:none" id="rect4712" width="85.333282" height="85.333282" x="682.66681" y="723.02875"/>
    <rect y="723.02875" x="768.00012" height="85.333282" width="85.333282" id="rect4714" style="fill:#ffffff;fill-opacity:0.3764706;fill-rule:nonzero;stroke:none"/>
    <rect y="808.362" x="512.00024" height="85.333282" width="85.333282" id="rect4716" style="fill:#ffffff;fill-opacity:0.25098039;fill-rule:nonzero;stroke:none"/>
    <rect style="fill:#ffffff;fill-opacity:0.1254902;fill-rule:nonzero;stroke:none" id="rect4718" width="85.333282" height="85.333282" x="597.33356" y="808.362"/>
    <rect y="808.362" x="682.66681" height="85.333282" width="85.333282" id="rect4720" style="fill:#ffffff;fill-opacity:0.25098039;fill-rule:nonzero;stroke:none"/>
    <rect style="fill:#ffffff;fill-opacity:0.1254902;fill-rule:nonzero;stroke:none" id="rect4722" width="85.333282" height="85.333282" x="768.00012" y="808.362"/>
    <rect style="fill:#ffffff;fill-opacity:0.1254902;fill-rule:nonzero;stroke:none" id="rect4724" width="85.333282" height="85.333282" x="512.00024" y="893.69525"/>
    <rect y="893.69525" x="597.33356" height="85.333282" width="85.333282" id="rect4726" style="fill:#ffffff;fill-opacity:0.25098039;fill-rule:nonzero;stroke:none"/>
    <rect style="fill:#ffffff;fill-opacity:0.1254902;fill-rule:nonzero;stroke:none" id="rect4728" width="85.333282" height="85.333282" x="682.66681" y="893.69525"/>
    <rect y="893.69525" x="768.00012" height="85.333282" width="85.333282" id="rect4730" style="fill:#ffffff;fill-opacity:0.25098039;fill-rule:nonzero;stroke:none"/>
    <rect style="fill:#ffffff;fill-opacity:0.1254902;fill-rule:nonzero;stroke:none" id="rect4732" width="85.333282" height="85.333282" x="853.33344" y="637.6955"/>
    <rect y="723.02875" x="853.33344" height="85.333282" width="85.333282" id="rect4734" style="fill:#ffffff;fill-opacity:0;fill-rule:nonzero;stroke:none"/>
    <rect style="fill:#ffffff;fill-opacity:0.25098039;fill-rule:nonzero;stroke:none" id="rect4736" width="85.333282" height="85.333282" x="853.33344" y="808.362"/>
    <rect y="893.69525" x="853.33344" height="85.333282" width="85.333282" id="rect4738" style="fill:#ffffff;fill-opacity:0.1254902;fill-rule:nonzero;stroke:none"/>
    <rect style="fill:#ffffff;fill-opacity:0;fill-rule:nonzero;stroke:none" id="rect4740" width="85.333282" height="85.333282" x="512.00024" y="979.02856"/>
    <rect y="979.02856" x="597.33356" height="85.333282" width="85.333282" id="rect4742" style="fill:#ffffff;fill-opacity:0.1254902;fill-rule:nonzero;stroke:none"/>
    <rect style="fill:#ffffff;fill-opacity:0.25098039;fill-rule:nonzero;stroke:none" id="rect4744" width="85.333282" height="85.333282" x="682.66681" y="979.02856"/>
    <rect y="979.02856" x="768.00012" height="85.333282" width="85.333282" id="rect4746" style="fill:#ffffff;fill-opacity:0.37647059;fill-rule:nonzero;stroke:none"/>
    <rect y="979.02856" x="853.33344" height="85.333282" width="85.333282" id="rect4748" style="fill:#ffffff;fill-opacity:0.25098039;fill-rule:nonzero;stroke:none"/>
    <rect y="637.6955" x="938.66669" height="85.333282" width="85.333282" id="rect4750" style="fill:#ffffff;fill-opacity:0.25098039;fill-rule:nonzero;stroke:none"/>
    <rect style="fill:#ffffff;fill-opacity:0.1254902;fill-rule:nonzero;stroke:none" id="rect4752" width="85.333282" height="85.333282" x="938.66669" y="723.02875"/>
    <rect y="808.362" x="938.66669" height="85.333282" width="85.333282" id="rect4754" style="fill:#ffffff;fill-opacity:0;fill-rule:nonzero;stroke:none"/>
    <rect style="fill:#ffffff;fill-opacity:0.25098039;fill-rule:nonzero;stroke:none" id="rect4756" width="85.333282" height="85.333282" x="938.66669" y="893.69525"/>
    <rect style="fill:#ffffff;fill-opacity:0.1254902;fill-rule:nonzero;stroke:none" id="rect4758" width="85.333282" height="85.333282" x="938.66669" y="979.02856"/>
    <rect style="fill:#ffffff;fill-opacity:0.25098041;fill-rule:nonzero;stroke:none" id="rect4760" width="85.333282" height="85.333282" x="512.00024" y="552.36218"/>
    <rect y="552.36218" x="597.33356" height="85.333282" width="85.333282" id="rect4762" style="fill:#ffffff;fill-opacity:0.1254902;fill-rule:nonzero;stroke:none"/>
    <rect style="fill:#ffffff;fill-opacity:0.37647059;fill-rule:nonzero;stroke:none" id="rect4764" width="85.333282" height="85.333282" x="682.66681" y="552.36218"/>
    <rect y="552.36218" x="768.00012" height="85.333282" width="85.333282" id="rect4766" style="fill:#ffffff;fill-opacity:0.1254902;fill-rule:nonzero;stroke:none"/>
    <rect y="552.36218" x="853.33344" height="85.333282" width="85.333282" id="rect4768" style="fill:#ffffff;fill-opacity:0.25098039;fill-rule:nonzero;stroke:none"/>
    <rect style="fill:#ffffff;fill-opacity:0.37647059;fill-rule:nonzero;stroke:none" id="rect4770" width="85.333282" height="85.333282" x="938.66669" y="552.36218"/>
  </g>
</svg>