<?xml version="1.0" encoding="utf-8"?>
<svg width="90px" height="90px" id="svg3317" version="1.1" viewBox="0 0 90 90" xmlns="http://www.w3.org/2000/svg">
<text style="font-style: normal; font-weight: normal; font-size: 40px; line-height: 125%; font-family: Sans; letter-spacing: 0px; word-spacing: 0px; fill: rgb(0, 0, 0); fill-opacity: 1; stroke: none; white-space: pre;" x="5411.245" y="3362.231" id="text5084-3"><tspan id="tspan5086-9" x="5411.245" y="3362.231" style="font-size: 40px; word-spacing: 0px;"/></text>
<text style="font-size: 40px; font-style: normal; font-weight: normal; line-height: 125%; letter-spacing: 0px; word-spacing: 0px; fill: rgb(0, 0, 0); fill-opacity: 1; stroke: none; font-family: Sans; white-space: pre;" x="4676.406" y="3368.037" id="text5084"><tspan id="tspan5086" x="4676.406" y="3368.037" style="font-size: 40px; word-spacing: 0px;"/></text>
<text style="font-style: normal; font-weight: normal; font-size: 43.2258px; line-height: 125%; font-family: Sans; letter-spacing: 0px; word-spacing: 0px; fill: rgb(0, 0, 0); fill-opacity: 1; stroke: none; white-space: pre;" x="4851.342" y="4465.172" id="text5152"><tspan id="tspan5154" x="4851.342" y="4465.172" style="font-size: 43.2px; word-spacing: 0px;"/></text>
<text style="font-style: normal; font-weight: normal; font-size: 54.1935px; line-height: 125%; font-family: Sans; letter-spacing: 0px; word-spacing: 0px; fill: rgb(0, 0, 0); fill-opacity: 1; stroke: none; white-space: pre;" x="6356.775" y="5429.857" id="text5396"><tspan id="tspan5398" x="6356.775" y="5429.857" style="font-size: 54.2px; word-spacing: 0px;"/></text>
<text style="font-style: normal; font-weight: normal; font-size: 40px; line-height: 125%; font-family: Sans; letter-spacing: 0px; word-spacing: 0px; fill: rgb(0, 0, 0); fill-opacity: 1; stroke: none; white-space: pre;" x="6371.893" y="3164.574" id="text5084-7"><tspan id="tspan5086-0" x="6371.893" y="3164.574" style="font-size: 40px; word-spacing: 0px;"/></text>
<rect y="34.2" x="27" height="7.2" width="7.2" id="rect6762" style="fill:#ffffff;fill-opacity:0.25098039;fill-rule:nonzero;stroke:none"/>
<rect style="fill:#ffffff;fill-opacity:0.1254902;fill-rule:nonzero;stroke:none" id="rect6764" width="7.2" height="7.2" x="34.2" y="34.2"/>
<rect y="34.2" x="41.4" height="7.2" width="7.2" id="rect6766" style="fill:#ffffff;fill-opacity:0;fill-rule:nonzero;stroke:none"/>
<rect style="fill:#ffffff;fill-opacity:0.25098039;fill-rule:nonzero;stroke:none" id="rect6768" width="7.2" height="7.2" x="48.6" y="34.2"/>
<rect style="fill:#ffffff;fill-opacity:0.1254902;fill-rule:nonzero;stroke:none" id="rect6794" width="7.2" height="7.2" x="55.8" y="34.2"/>
<path id="path6802" d="M 28.608 27 C 27.717 27 27 27.717 27 28.608 L 27 34.2 L 34.2 34.2 L 34.2 27 L 28.608 27 Z" style="fill:#ffffff;fill-opacity:0.37647059;fill-rule:nonzero;stroke:none"/>
<rect y="27" x="34.2" height="7.2" width="7.2" id="rect6804" style="fill:#ffffff;fill-opacity:0.25098039;fill-rule:nonzero;stroke:none"/>
<rect style="fill:#ffffff;fill-opacity:0.37647059;fill-rule:nonzero;stroke:none" id="rect6806" width="7.2" height="7.2" x="41.4" y="27"/>
<rect y="27" x="48.6" height="7.2" width="7.2" id="rect6808" style="fill:#ffffff;fill-opacity:0.1254902;fill-rule:nonzero;stroke:none"/>
<path id="path6810" d="M 55.8 27 L 55.8 34.2 L 63 34.2 L 63 28.608 C 63 27.717 62.283 27 61.392 27 L 55.8 27 Z" style="fill:#ffffff;fill-opacity:0.25098039;fill-rule:nonzero;stroke:none"/>
<path style="fill-opacity: 1; stroke: none; stroke-width: 4; stroke-linecap: butt; stroke-linejoin: miter; stroke-miterlimit: 4; stroke-dasharray: none; stroke-opacity: 1;" d="M 63 30.09 L 27 37.779 L 27 61.392 C 27 62.283 27.717 63 28.608 63 L 61.392 63 C 62.283 63 63 62.283 63 61.392 Z" id="rect6834"/>
<path style="fill-opacity: 1; stroke: none; fill: rgb(255, 255, 255);" d="M 56.544 38.641 C 56.082 39.308 55.735 39.974 55.507 40.634 C 55.282 41.292 55.17 41.959 55.17 42.637 C 55.17 43.319 55.282 43.989 55.507 44.647 C 55.732 45.301 56.079 45.967 56.544 46.643 L 57.542 46.643 C 57.156 45.941 56.872 45.263 56.685 44.605 C 56.498 43.944 56.403 43.286 56.403 42.637 C 56.403 41.982 56.498 41.328 56.685 40.673 C 56.872 40.018 57.156 39.34 57.542 38.641 L 56.544 38.641 Z" id="path6816"/>
<path style="fill-opacity: 1; stroke: none; fill: rgb(255, 255, 255);" d="M 50.564 38.792 C 50.295 38.792 50.016 38.816 49.723 38.866 C 49.431 38.913 49.135 38.981 48.834 39.071 L 48.834 40.249 C 49.135 40.132 49.426 40.041 49.707 39.98 C 49.988 39.918 50.248 39.89 50.494 39.89 C 50.815 39.89 51.066 39.958 51.241 40.095 C 51.42 40.23 51.508 40.417 51.508 40.66 C 51.508 40.891 51.42 41.071 51.241 41.199 C 51.066 41.325 50.815 41.389 50.494 41.389 L 49.803 41.389 L 49.803 42.528 L 50.494 42.528 C 50.868 42.528 51.159 42.62 51.363 42.804 C 51.568 42.985 51.671 43.245 51.671 43.581 C 51.671 43.856 51.568 44.075 51.363 44.239 C 51.159 44.4 50.88 44.48 50.529 44.48 C 50.178 44.48 49.843 44.444 49.524 44.374 C 49.206 44.301 48.91 44.197 48.635 44.059 L 48.635 45.26 C 48.928 45.365 49.234 45.448 49.553 45.503 C 49.875 45.559 50.198 45.587 50.529 45.587 C 51.304 45.587 51.894 45.42 52.301 45.086 C 52.707 44.753 52.91 44.27 52.91 43.635 C 52.91 43.162 52.79 42.779 52.544 42.49 C 52.299 42.197 51.94 42.01 51.472 41.928 C 51.885 41.852 52.204 41.692 52.426 41.446 C 52.648 41.198 52.76 40.879 52.76 40.49 C 52.76 39.961 52.565 39.546 52.179 39.245 C 51.793 38.943 51.254 38.792 50.564 38.792 Z" id="path6818"/>
<path style="fill-opacity: 1; stroke: none; fill: rgb(255, 255, 255);" d="M 45.846 40.419 C 45.089 40.419 44.494 40.647 44.065 41.106 C 43.635 41.562 43.419 42.196 43.419 43.006 C 43.419 43.813 43.634 44.444 44.061 44.9 C 44.488 45.356 45.079 45.587 45.836 45.587 C 46.123 45.587 46.39 45.555 46.639 45.491 C 46.887 45.429 47.122 45.334 47.338 45.208 L 47.338 44.03 C 47.145 44.2 46.938 44.324 46.722 44.409 C 46.506 44.491 46.274 44.534 46.026 44.534 C 45.608 44.534 45.285 44.403 45.06 44.139 C 44.834 43.876 44.723 43.498 44.723 43.006 C 44.723 42.515 44.834 42.136 45.06 41.87 C 45.285 41.604 45.608 41.472 46.026 41.472 C 46.265 41.472 46.497 41.516 46.719 41.604 C 46.944 41.689 47.151 41.812 47.338 41.973 L 47.338 40.795 C 47.096 40.666 46.849 40.574 46.603 40.512 C 46.361 40.451 46.109 40.419 45.846 40.419 Z" id="path6820"/>
<path style="fill-opacity: 1; stroke: none; fill: rgb(255, 255, 255);" d="M 32.227 40.548 L 33.79 45.459 L 35.373 45.459 L 36.933 40.548 L 35.63 40.548 L 34.58 44.38 L 33.53 40.548 L 32.227 40.548 Z" id="path6822"/>
<path id="path6824" style="fill-opacity: 1; stroke: none; fill: rgb(255, 255, 255);" d="M 40.02 41.424 C 40.348 41.424 40.595 41.512 40.762 41.687 C 40.931 41.86 41.019 42.115 41.025 42.454 L 39.003 42.458 C 39.035 42.127 39.139 41.875 39.314 41.697 C 39.49 41.516 39.725 41.424 40.02 41.424 Z M 39.889 40.429 C 39.229 40.456 38.702 40.69 38.31 41.126 C 37.892 41.59 37.684 42.224 37.684 43.026 C 37.684 43.853 37.899 44.487 38.332 44.929 C 38.768 45.368 39.398 45.587 40.219 45.587 C 40.564 45.587 40.892 45.555 41.202 45.494 C 41.511 45.432 41.815 45.341 42.113 45.218 L 42.113 44.037 C 41.8 44.221 41.501 44.356 41.214 44.441 C 40.928 44.526 40.637 44.57 40.341 44.57 C 39.894 44.57 39.559 44.474 39.334 44.284 C 39.108 44.094 38.993 43.806 38.99 43.42 L 42.318 43.42 L 42.318 42.897 C 42.318 42.114 42.119 41.507 41.715 41.077 C 41.315 40.645 40.748 40.429 40.02 40.429 C 39.975 40.429 39.933 40.427 39.889 40.429 Z"/>
<path style="fill-opacity: 1; stroke: none; fill: rgb(255, 255, 255);" d="M 39.594 50.138 L 38.24 50.462 L 38.24 51.631 L 39.588 51.297 L 39.588 55.547 L 38.14 55.547 L 38.14 56.686 L 42.294 56.686 L 42.294 55.547 L 40.846 55.547 L 40.846 50.138 L 39.594 50.138 Z" id="path6826"/>
<path style="fill-opacity: 1; stroke: none; fill: rgb(255, 255, 255);" d="M 44.688 55.078 L 44.688 56.686 L 46.148 56.686 L 46.148 55.078 L 44.688 55.078 Z" id="path6828"/>
<rect y="47.829" x="49.688" height="11.717" width="1.017" id="rect6830" style="fill-opacity: 1; stroke: rgb(255, 255, 255); stroke-width: 0.910057; fill: rgb(255, 255, 255);"/>
</svg>