<?xml version="1.0" encoding="UTF-8" standalone="no"?>
<!-- Created with Inkscape (http://www.inkscape.org/) -->

<svg
   xmlns:dc="http://purl.org/dc/elements/1.1/"
   xmlns:cc="http://creativecommons.org/ns#"
   xmlns:rdf="http://www.w3.org/1999/02/22-rdf-syntax-ns#"
   xmlns:svg="http://www.w3.org/2000/svg"
   xmlns="http://www.w3.org/2000/svg"
   xmlns:xlink="http://www.w3.org/1999/xlink"
   xmlns:sodipodi="http://sodipodi.sourceforge.net/DTD/sodipodi-0.dtd"
   xmlns:inkscape="http://www.inkscape.org/namespaces/inkscape"
   width="512"
   height="512"
   id="svg3317"
   version="1.1"
   inkscape:version="0.91 r13725"
   sodipodi:docname="ic_launcher.svg"
   inkscape:export-filename="/home/markus/ic_launcher.png"
   inkscape:export-xdpi="90"
   inkscape:export-ydpi="90">
  <sodipodi:namedview
     id="base"
     pagecolor="#ffffff"
     bordercolor="#f0f0f0"
     borderopacity="1"
     inkscape:pageopacity="0.0"
     inkscape:pageshadow="2"
     inkscape:zoom="0.45301824"
     inkscape:cx="256.00002"
     inkscape:cy="260.00279"
     inkscape:document-units="px"
     inkscape:current-layer="layer1"
     showgrid="false"
     showborder="true"
     inkscape:showpageshadow="false"
     inkscape:window-width="1243"
     inkscape:window-height="697"
     inkscape:window-x="109"
     inkscape:window-y="15"
     inkscape:window-maximized="0"
     showguides="true"
     inkscape:guide-bbox="true" />
  <defs
     id="defs3319">
    <linearGradient
       inkscape:collect="always"
       id="linearGradient13531">
      <stop
         style="stop-color:#000000;stop-opacity:1;"
         offset="0"
         id="stop13533" />
      <stop
         style="stop-color:#000000;stop-opacity:0;"
         offset="1"
         id="stop13535" />
    </linearGradient>
    <linearGradient
       id="linearGradient6823"
       inkscape:collect="always">
      <stop
         id="stop6825"
         offset="0"
         style="stop-color:#000000;stop-opacity:1;" />
      <stop
         id="stop6827"
         offset="1"
         style="stop-color:#000000;stop-opacity:0;" />
    </linearGradient>
    <linearGradient
       y2="498.69897"
       x2="630.89801"
       y1="45.973049"
       x1="178.17209"
       gradientTransform="translate(-10.981457,542.43736)"
       gradientUnits="userSpaceOnUse"
       id="linearGradient11338"
       xlink:href="#linearGradient6823"
       inkscape:collect="always" />
    <linearGradient
       inkscape:collect="always"
       xlink:href="#linearGradient13531"
       id="linearGradient13537"
       x1="164.86719"
       y1="360.61719"
       x2="854.46484"
       y2="360.61719"
       gradientUnits="userSpaceOnUse"
       gradientTransform="translate(3.0185432,532.43734)" />
    <filter
       style="color-interpolation-filters:sRGB;"
       inkscape:label="Drop Shadow"
       id="filter3173">
      <feFlood
         flood-opacity="0.2"
         flood-color="rgb(0,0,0)"
         result="flood"
         id="feFlood3175" />
      <feComposite
         in="flood"
         in2="SourceGraphic"
         operator="in"
         result="composite1"
         id="feComposite3177" />
      <feGaussianBlur
         in="composite"
         stdDeviation="8"
         result="blur"
         id="feGaussianBlur3179" />
      <feOffset
         dx="0"
         dy="4"
         result="offset"
         id="feOffset3181" />
      <feComposite
         in="SourceGraphic"
         in2="offset"
         operator="over"
         result="fbSourceGraphic"
         id="feComposite3183" />
      <feColorMatrix
         result="fbSourceGraphicAlpha"
         in="fbSourceGraphic"
         values="0 0 0 -1 0 0 0 0 -1 0 0 0 0 -1 0 0 0 0 1 0"
         id="feColorMatrix3185" />
      <feFlood
         id="feFlood3187"
         flood-opacity="0.2"
         flood-color="rgb(0,0,0)"
         result="flood"
         in="fbSourceGraphic" />
      <feComposite
         id="feComposite3189"
         in2="fbSourceGraphic"
         in="flood"
         operator="in"
         result="composite1" />
      <feGaussianBlur
         id="feGaussianBlur3191"
         in="composite"
         stdDeviation="8"
         result="blur" />
      <feOffset
         id="feOffset3193"
         dx="0"
         dy="4"
         result="offset" />
      <feComposite
         id="feComposite3195"
         in2="offset"
         in="fbSourceGraphic"
         operator="over"
         result="composite2" />
    </filter>
    <filter
       style="color-interpolation-filters:sRGB;"
       inkscape:label="Drop Shadow"
       id="filter3079">
      <feFlood
         flood-opacity="0.2"
         flood-color="rgb(0,0,0)"
         result="flood"
         id="feFlood3081" />
      <feComposite
         in="flood"
         in2="SourceGraphic"
         operator="in"
         result="composite1"
         id="feComposite3083" />
      <feGaussianBlur
         in="composite"
         stdDeviation="8"
         result="blur"
         id="feGaussianBlur3085" />
      <feOffset
         dx="0"
         dy="8"
         result="offset"
         id="feOffset3087" />
      <feComposite
         in="SourceGraphic"
         in2="offset"
         operator="over"
         result="fbSourceGraphic"
         id="feComposite3089" />
      <feColorMatrix
         result="fbSourceGraphicAlpha"
         in="fbSourceGraphic"
         values="0 0 0 -1 0 0 0 0 -1 0 0 0 0 -1 0 0 0 0 1 0"
         id="feColorMatrix3091" />
      <feFlood
         id="feFlood3093"
         flood-opacity="0.2"
         flood-color="rgb(0,0,0)"
         result="flood"
         in="fbSourceGraphic" />
      <feComposite
         id="feComposite3095"
         in2="fbSourceGraphic"
         in="flood"
         operator="in"
         result="composite1" />
      <feGaussianBlur
         id="feGaussianBlur3097"
         in="composite"
         stdDeviation="8"
         result="blur" />
      <feOffset
         id="feOffset3099"
         dx="0"
         dy="8"
         result="offset" />
      <feComposite
         id="feComposite3101"
         in2="offset"
         in="fbSourceGraphic"
         operator="over"
         result="composite2" />
    </filter>
  </defs>
  <metadata
     id="metadata3322">
    <rdf:RDF>
      <cc:Work
         rdf:about="">
        <dc:format>image/svg+xml</dc:format>
        <dc:type
           rdf:resource="http://purl.org/dc/dcmitype/StillImage" />
        <dc:title />
      </cc:Work>
    </rdf:RDF>
  </metadata>
  <g
     inkscape:label="Ebene 1"
     inkscape:groupmode="layer"
     id="layer1"
     transform="translate(0,-540.36218)">
    <path
       style="fill:#000000;fill-opacity:1;fill-rule:nonzero;stroke:none;filter:url(#filter3079)"
       d="m 134.96875,639.125 c -1.89378,4.43955 -11.83458,0.83209 -17,2 -32.3125,0 -64.625,0 -96.9375,0 0,128.4375 0,256.875 0,385.3125 128.4375,0 256.875,0 385.3125,0 0.19033,-27.4003 -0.3788,-55.01102 0.28125,-82.28125 5.49096,-9.01996 8.59352,-19.34975 9.09375,-29.875 25.08333,0 50.16667,0 75.25,0 0,-118.66667 0,-237.33333 0,-356 -118.66667,0 -237.33333,0 -356,0 0,26.94792 0,53.89583 0,80.84375 z"
       id="path14006"
       inkscape:connector-curvature="0" />
    <flowRoot
       xml:space="preserve"
       id="flowRoot3776"
       style="fill:black;stroke:none;stroke-opacity:1;stroke-width:1px;stroke-linejoin:miter;stroke-linecap:butt;fill-opacity:1;font-family:Sans;font-style:normal;font-weight:normal;font-size:40px;line-height:125%;letter-spacing:0px;word-spacing:0px"><flowRegion
         id="flowRegion3778"><rect
           id="rect3780"
           width="29"
           height="71"
           x="52"
           y="60" /></flowRegion><flowPara
         id="flowPara3782" /></flowRoot>    <text
       xml:space="preserve"
       style="font-size:40px;font-style:normal;font-weight:normal;line-height:125%;letter-spacing:0px;word-spacing:0px;fill:#000000;fill-opacity:1;stroke:none;font-family:Sans"
       x="4676.4058"
       y="3368.0371"
       id="text5084"
       sodipodi:linespacing="125%"><tspan
         sodipodi:role="line"
         id="tspan5086"
         x="4676.4058"
         y="3368.0371" /></text>
    <g
       id="g7659"
       transform="matrix(0.8110689,0,0,0.8110689,1303.7516,706.96026)">
      <path
         inkscape:connector-curvature="0"
         id="path7661"
         d="m -1584,-83.6408 0,120 0,120 0,120 0,120 120,0 120,0 120,0 120,0 0,-120 0,-120 0,-120 0,-120 -120,0 -120,0 -120,0 -120,0 z"
         style="fill:#399ed7;fill-opacity:1;fill-rule:nonzero;stroke:none" />
      <rect
         style="fill:#ffffff;fill-opacity:0.25098039;fill-rule:nonzero;stroke:none"
         id="rect7663"
         width="80"
         height="80"
         x="-1583.9995"
         y="-3.6378174" />
      <rect
         y="-3.6378174"
         x="-1503.9995"
         height="80"
         width="80"
         id="rect7665"
         style="fill:#ffffff;fill-opacity:0.1254902;fill-rule:nonzero;stroke:none" />
      <rect
         style="fill:#ffffff;fill-opacity:0;fill-rule:nonzero;stroke:none"
         id="rect7667"
         width="80"
         height="80"
         x="-1423.9995"
         y="-3.6378174" />
      <rect
         y="-3.6378174"
         x="-1343.9995"
         height="80"
         width="80"
         id="rect7669"
         style="fill:#ffffff;fill-opacity:0.25098039;fill-rule:nonzero;stroke:none" />
      <rect
         y="76.362183"
         x="-1583.9995"
         height="80"
         width="80"
         id="rect7671"
         style="fill:#ffffff;fill-opacity:0;fill-rule:nonzero;stroke:none" />
      <rect
         style="fill:#ffffff;fill-opacity:0.25098039;fill-rule:nonzero;stroke:none"
         id="rect7673"
         width="80"
         height="80"
         x="-1503.9995"
         y="76.362183" />
      <rect
         y="76.362183"
         x="-1423.9995"
         height="80"
         width="80"
         id="rect7675"
         style="fill:#ffffff;fill-opacity:0.37647059;fill-rule:nonzero;stroke:none" />
      <rect
         style="fill:#ffffff;fill-opacity:0.1254902;fill-rule:nonzero;stroke:none"
         id="rect7677"
         width="80"
         height="80"
         x="-1343.9995"
         y="76.362183" />
      <rect
         style="fill:#ffffff;fill-opacity:0.25098039;fill-rule:nonzero;stroke:none"
         id="rect7679"
         width="80"
         height="80"
         x="-1583.9995"
         y="156.36218" />
      <rect
         y="156.36218"
         x="-1503.9995"
         height="80"
         width="80"
         id="rect7681"
         style="fill:#ffffff;fill-opacity:0.1254902;fill-rule:nonzero;stroke:none" />
      <rect
         style="fill:#ffffff;fill-opacity:0.25098039;fill-rule:nonzero;stroke:none"
         id="rect7683"
         width="80"
         height="80"
         x="-1423.9995"
         y="156.36218" />
      <rect
         y="156.36218"
         x="-1343.9995"
         height="80"
         width="80"
         id="rect7685"
         style="fill:#ffffff;fill-opacity:0.37647059;fill-rule:nonzero;stroke:none" />
      <rect
         y="236.36218"
         x="-1583.9995"
         height="80"
         width="80"
         id="rect7687"
         style="fill:#ffffff;fill-opacity:0.1254902;fill-rule:nonzero;stroke:none" />
      <rect
         style="fill:#ffffff;fill-opacity:0.25098039;fill-rule:nonzero;stroke:none"
         id="rect7689"
         width="80"
         height="80"
         x="-1503.9995"
         y="236.36218" />
      <rect
         y="236.36218"
         x="-1423.9995"
         height="80"
         width="80"
         id="rect7691"
         style="fill:#ffffff;fill-opacity:0.1254902;fill-rule:nonzero;stroke:none" />
      <rect
         style="fill:#ffffff;fill-opacity:0.25098039;fill-rule:nonzero;stroke:none"
         id="rect7693"
         width="80"
         height="80"
         x="-1343.9995"
         y="236.36218" />
      <rect
         y="-3.6378174"
         x="-1263.9995"
         height="80"
         width="80"
         id="rect7695"
         style="fill:#ffffff;fill-opacity:0.1254902;fill-rule:nonzero;stroke:none" />
      <rect
         style="fill:#ffffff;fill-opacity:0;fill-rule:nonzero;stroke:none"
         id="rect7697"
         width="80"
         height="80"
         x="-1263.9995"
         y="76.362183" />
      <rect
         y="156.36218"
         x="-1263.9995"
         height="80"
         width="80"
         id="rect7699"
         style="fill:#ffffff;fill-opacity:0.25098039;fill-rule:nonzero;stroke:none" />
      <rect
         style="fill:#ffffff;fill-opacity:0.1254902;fill-rule:nonzero;stroke:none"
         id="rect7701"
         width="80"
         height="80"
         x="-1263.9995"
         y="236.36218" />
      <rect
         y="316.36218"
         x="-1583.9995"
         height="80"
         width="80"
         id="rect7703"
         style="fill:#ffffff;fill-opacity:0;fill-rule:nonzero;stroke:none" />
      <rect
         style="fill:#ffffff;fill-opacity:0.1254902;fill-rule:nonzero;stroke:none"
         id="rect7705"
         width="80"
         height="80"
         x="-1503.9995"
         y="316.36218" />
      <rect
         y="316.36218"
         x="-1423.9995"
         height="80"
         width="80"
         id="rect7707"
         style="fill:#ffffff;fill-opacity:0.25098039;fill-rule:nonzero;stroke:none" />
      <rect
         style="fill:#ffffff;fill-opacity:0.37647059;fill-rule:nonzero;stroke:none"
         id="rect7709"
         width="80"
         height="80"
         x="-1343.9995"
         y="316.36218" />
      <rect
         style="fill:#ffffff;fill-opacity:0.25098039;fill-rule:nonzero;stroke:none"
         id="rect7711"
         width="80"
         height="80"
         x="-1263.9995"
         y="316.36218" />
      <rect
         style="fill:#ffffff;fill-opacity:0.25098039;fill-rule:nonzero;stroke:none"
         id="rect7713"
         width="80"
         height="80"
         x="-1183.9995"
         y="-3.6378174" />
      <rect
         y="76.362183"
         x="-1183.9995"
         height="80"
         width="80"
         id="rect7715"
         style="fill:#ffffff;fill-opacity:0.1254902;fill-rule:nonzero;stroke:none" />
      <rect
         style="fill:#ffffff;fill-opacity:0;fill-rule:nonzero;stroke:none"
         id="rect7717"
         width="80"
         height="80"
         x="-1183.9995"
         y="156.36218" />
      <rect
         y="236.36218"
         x="-1183.9995"
         height="80"
         width="80"
         id="rect7719"
         style="fill:#ffffff;fill-opacity:0.25098039;fill-rule:nonzero;stroke:none" />
      <rect
         y="316.36218"
         x="-1183.9995"
         height="80"
         width="80"
         id="rect7721"
         style="fill:#ffffff;fill-opacity:0.1254902;fill-rule:nonzero;stroke:none" />
      <rect
         y="-83.637817"
         x="-1583.9995"
         height="80"
         width="80"
         id="rect7723"
         style="fill:#ffffff;fill-opacity:0.37647059;fill-rule:nonzero;stroke:none" />
      <rect
         style="fill:#ffffff;fill-opacity:0.25098039;fill-rule:nonzero;stroke:none"
         id="rect7725"
         width="80"
         height="80"
         x="-1503.9995"
         y="-83.637817" />
      <rect
         y="-83.637817"
         x="-1423.9995"
         height="80"
         width="80"
         id="rect7727"
         style="fill:#ffffff;fill-opacity:0.37647059;fill-rule:nonzero;stroke:none" />
      <rect
         style="fill:#ffffff;fill-opacity:0.1254902;fill-rule:nonzero;stroke:none"
         id="rect7729"
         width="80"
         height="80"
         x="-1343.9995"
         y="-83.637817" />
      <rect
         style="fill:#ffffff;fill-opacity:0.25098039;fill-rule:nonzero;stroke:none"
         id="rect7731"
         width="80"
         height="80"
         x="-1263.9995"
         y="-83.637817" />
      <rect
         y="-83.637817"
         x="-1183.9995"
         height="80"
         width="80"
         id="rect7733"
         style="fill:#ffffff;fill-opacity:0.37647059;fill-rule:nonzero;stroke:none" />
    </g>
    <path
       style="opacity:0.2;fill:url(#linearGradient11338);fill-opacity:1;stroke:none"
       d="m 130.98143,639.12096 0,275.1679 114.14649,114.14654 65.875,0 97.32812,0 0,-97.32814 0,-97.3281 0,-97.3281 0,-97.3301 -97.32812,0 -97.32813,0 -82.69336,0 z"
       id="path11336"
       inkscape:connector-curvature="0" />
    <rect
       y="556.28851"
       x="132.98051"
       height="360"
       width="360"
       id="rect7737"
       style="fill:#303030;fill-opacity:1;stroke:none" />
    <path
       inkscape:connector-curvature="0"
       style="opacity:0.3;fill:url(#linearGradient13537);fill-opacity:1;stroke:none"
       d="m 446.06346,589.83968 c -5.28508,7.62676 -9.25023,15.24112 -11.85937,22.80078 -2.06567,6.03625 -3.28251,12.13801 -3.68946,18.32032 -0.0424,-0.039 -0.084,-0.0784 -0.12695,-0.11719 -0.41287,-0.46132 -0.85781,-0.90406 -1.33008,-1.33008 -0.4123,-0.46054 -0.85661,-0.90277 -1.32812,-1.32812 -0.41378,-0.46233 -0.8586,-0.90516 -1.33203,-1.33203 -0.41458,-0.46294 -0.86152,-0.90662 -1.33594,-1.33399 -0.41019,-0.45759 -0.84967,-0.8975 -1.31836,-1.32031 -0.41288,-0.46132 -0.85781,-0.90406 -1.33008,-1.33008 -0.4123,-0.46054 -0.85662,-0.90277 -1.32812,-1.32812 -0.41378,-0.46234 -0.8586,-0.90516 -1.33203,-1.33204 -0.41459,-0.46293 -0.86152,-0.90661 -1.33594,-1.33398 -0.41019,-0.45759 -0.84967,-0.8975 -1.31836,-1.32031 -0.41288,-0.46132 -0.85781,-0.90406 -1.33008,-1.33008 -0.4123,-0.46054 -0.85663,-0.90277 -1.32812,-1.32813 -0.41378,-0.46233 -0.8586,-0.90515 -1.33204,-1.33203 -0.41247,-0.46058 -0.85642,-0.90274 -1.32812,-1.32812 -0.41182,-0.45986 -0.85531,-0.90141 -1.32617,-1.32617 -0.41288,-0.46133 -0.85781,-0.90406 -1.33008,-1.33008 -0.4123,-0.46055 -0.85662,-0.90277 -1.32813,-1.32813 -0.41377,-0.46233 -0.85859,-0.90515 -1.33203,-1.33203 -0.41247,-0.46058 -0.85642,-0.90275 -1.32812,-1.32812 -0.41182,-0.45987 -0.85531,-0.90141 -1.32617,-1.32618 -0.41288,-0.46132 -0.85781,-0.90405 -1.33008,-1.33007 -0.4123,-0.46055 -0.85662,-0.90278 -1.32813,-1.32813 -0.41378,-0.46233 -0.8586,-0.90516 -1.33203,-1.33203 -0.41247,-0.46058 -0.85642,-0.90275 -1.32812,-1.32812 -0.70325,-0.7853 -1.48996,-1.52211 -2.36524,-2.20508 -4.41545,-3.44531 -10.57452,-5.17762 -18.46875,-5.17774 -3.07739,1.2e-4 -6.27409,0.27716 -9.61914,0.84571 -3.34493,0.53534 -6.72657,1.3127 -10.17187,2.34961 l 0,13.4746 c 0.44634,-0.17332 0.88561,-0.32688 1.32812,-0.49023 l 0,1.81836 c 0.44713,-0.17363 0.88679,-0.32857 1.33008,-0.49219 l 0,1.82227 c 0.44634,-0.17333 0.88561,-0.32689 1.32812,-0.49024 l 0,1.81836 c 0.44713,-0.17363 0.88679,-0.32857 1.33008,-0.49218 l 0,1.82226 c 0.44644,-0.17336 0.88551,-0.3288 1.32813,-0.49219 l 0,1.82032 c 0.44634,-0.17333 0.88561,-0.32689 1.32812,-0.49024 l 0,1.81836 c 0.44713,-0.17363 0.88679,-0.32857 1.33008,-0.49219 l 0,1.82227 c 0.44634,-0.17333 0.88561,-0.32689 1.32813,-0.49024 l 0,1.81836 c 0.44713,-0.17363 0.88678,-0.32856 1.33007,-0.49218 l 0,1.82226 c 0.44645,-0.17336 0.88551,-0.3288 1.32813,-0.49219 l 0,1.56641 -2.19922,0 0,13.03516 1.32812,0 0,1.32812 1.33008,0 0,1.33008 1.32813,0 0,1.32813 1.33008,0 0,1.33007 1.32812,0 0,1.32813 1.32813,0 0,1.32812 1.33007,0 0,1.33008 1.32813,0 0,1.32813 1.33008,0 0,1.33007 1.32812,0 0,1.32813 1.32813,0 0,1.32813 1.33008,0 0,1.33007 1.32812,0 0,1.32813 1.33008,0 0,1.33008 0.27344,0 c -0.31813,0.33639 -0.65633,0.66177 -1.03516,0.96484 -1.33775,1.05113 -2.96213,1.7893 -4.84961,2.23828 l 0,-0.4414 c -0.4412,-0.23387 -0.88485,-0.43922 -1.32812,-0.65235 l 0,-0.67578 c -0.44104,-0.23377 -0.88502,-0.43929 -1.32813,-0.65234 l 0,-0.67579 c -0.44181,-0.23417 -0.88618,-0.44089 -1.33008,-0.65429 l 0,-0.67578 c -0.44103,-0.23377 -0.88501,-0.43929 -1.32812,-0.65235 l 0,-0.67578 c -0.44182,-0.23418 -0.88619,-0.44089 -1.33008,-0.6543 l 0,-0.67578 c -0.4412,-0.23385 -0.88485,-0.43921 -1.32813,-0.65234 l 0,-0.67578 c -0.44103,-0.23377 -0.88501,-0.43929 -1.32812,-0.65234 l 0,-0.67579 c -0.44181,-0.23418 -0.88618,-0.44089 -1.33008,-0.65429 l 0,-0.67578 c -0.44103,-0.23377 -0.88502,-0.43929 -1.32812,-0.65235 l 0,-0.67578 c -0.44182,-0.23418 -0.88619,-0.4409 -1.33008,-0.6543 l 0,-0.67578 c -0.4412,-0.23385 -0.88485,-0.43921 -1.32813,-0.65234 l 0,-0.67578 c -0.44103,-0.23377 -0.88501,-0.43929 -1.32812,-0.65235 l 0,-0.67578 c -0.44181,-0.23418 -0.88619,-0.4409 -1.33008,-0.65429 l 0,-0.67579 c -0.44103,-0.23377 -0.88502,-0.43928 -1.32813,-0.65234 l 0,-0.67578 c -0.44181,-0.23418 -0.88618,-0.4409 -1.33007,-0.6543 l 0,-0.67578 c -0.4412,-0.23386 -0.88485,-0.43921 -1.32813,-0.65234 l 0,-0.67578 c -0.44103,-0.23377 -0.88501,-0.43929 -1.32812,-0.65235 l 0,-0.67578 c -0.44182,-0.23418 -0.88619,-0.4409 -1.33008,-0.6543 l 0,-0.67578 c -0.44103,-0.23377 -0.88502,-0.43928 -1.32813,-0.65234 l 0,-0.67578 c -0.44181,-0.23419 -0.88618,-0.4409 -1.33007,-0.6543 l 0,-0.67578 c -0.4412,-0.23386 -0.88486,-0.43921 -1.32813,-0.65234 l 0,-0.67579 c -0.44103,-0.23377 -0.88502,-0.43928 -1.32812,-0.65234 l 0,-0.67578 c -0.44182,-0.23418 -0.88619,-0.4409 -1.33008,-0.6543 l 0,-0.67578 c -0.44104,-0.23377 -0.88502,-0.43928 -1.32813,-0.65234 l 0,-0.67578 c -0.44181,-0.23419 -0.88618,-0.4409 -1.33008,-0.6543 l 0,-0.67578 c -0.44119,-0.23386 -0.88485,-0.43922 -1.32812,-0.65235 l 0,-0.67578 c -0.44103,-0.23377 -0.88502,-0.43928 -1.32813,-0.65234 l 0,-0.67578 c -0.44181,-0.23419 -0.88618,-0.4409 -1.33007,-0.6543 l 0,-0.67578 c -0.44104,-0.23377 -0.88502,-0.43929 -1.32813,-0.65234 l 0,-0.67578 c -0.44181,-0.23419 -0.88618,-0.4409 -1.33008,-0.6543 l 0,-0.67578 c -0.44119,-0.23386 -0.88485,-0.43922 -1.32812,-0.65235 l 0,-0.67578 c -2.77637,-1.47162 -5.59845,-2.52797 -8.40821,-3.23047 -2.77636,-0.70226 -5.65354,-1.06445 -8.66406,-1.06445 -8.66351,0 -15.46183,2.60583 -20.3789,7.85742 -4.46375,4.73708 -6.89816,11.15652 -7.31055,19.23047 -0.27913,-0.28753 -0.56485,-0.56606 -0.85742,-0.83594 -0.036,-0.039 -0.0691,-0.0804 -0.10547,-0.11914 -0.3913,-0.4227 -0.80378,-0.82052 -1.22266,-1.20703 -0.037,-0.04 -0.0701,-0.0833 -0.10742,-0.12304 -0.39212,-0.4236 -0.80284,-0.82175 -1.22266,-1.20899 -0.036,-0.039 -0.0691,-0.0804 -0.10546,-0.11914 -0.39236,-0.42384 -0.80454,-0.82349 -1.22461,-1.21094 -0.036,-0.0389 -0.0692,-0.0805 -0.10547,-0.11914 -0.39213,-0.42359 -0.80285,-0.82174 -1.22266,-1.20898 -0.036,-0.039 -0.0691,-0.0804 -0.10547,-0.11914 -0.39212,-0.42359 -0.80284,-0.82175 -1.22265,-1.20899 -0.0361,-0.039 -0.0691,-0.0804 -0.10547,-0.11914 -0.3913,-0.4227 -0.80379,-0.82053 -1.22266,-1.20703 -0.037,-0.04 -0.0701,-0.0833 -0.10742,-0.12305 -0.39212,-0.42358 -0.80285,-0.82174 -1.22266,-1.20898 -0.0361,-0.039 -0.0691,-0.0804 -0.10547,-0.11914 -0.39446,-0.42612 -0.80798,-0.82747 -1.23046,-1.2168 -0.0341,-0.0368 -0.0652,-0.0767 -0.0996,-0.11328 -0.39213,-0.42359 -0.80285,-0.82174 -1.22266,-1.20898 -0.036,-0.039 -0.0691,-0.0804 -0.10547,-0.11914 -0.39212,-0.42359 -0.80284,-0.82175 -1.22266,-1.20899 -0.036,-0.039 -0.0691,-0.0804 -0.10546,-0.11914 -0.39131,-0.4227 -0.80379,-0.82053 -1.22266,-1.20703 -0.037,-0.04 -0.0701,-0.0833 -0.10742,-0.12305 -0.39213,-0.42358 -0.80285,-0.82174 -1.22266,-1.20898 -0.036,-0.039 -0.0691,-0.0804 -0.10547,-0.11914 -0.39446,-0.42612 -0.80798,-0.82747 -1.23047,-1.2168 -0.0341,-0.0368 -0.0652,-0.0767 -0.0996,-0.11328 -0.39214,-0.42359 -0.80285,-0.82175 -1.22266,-1.20899 -0.0361,-0.039 -0.0691,-0.0804 -0.10547,-0.11914 -4.58267,-4.95037 -11.05776,-7.41796 -19.38672,-7.41796 -0.51642,0 -1.00296,-0.0211 -1.50586,0 -7.54186,0.31159 -13.58002,2.98272 -18.06445,7.96875 -1.61248,1.79294 -2.94504,3.81126 -4.01172,6.04296 l 0.2207,-0.6914 -1.75195,0 0.42187,-1.33008 -1.75,0 0.42188,-1.32813 -1.75195,0 0.42187,-1.33007 -1.75,0 0.42188,-1.32813 -1.75,0 0.42187,-1.32812 -1.75195,0 0.42187,-1.33008 -1.75,0 0.42188,-1.32813 -1.75195,0 0.42187,-1.33007 -1.75,0 0.42188,-1.32813 -14.90821,0 -5.25195,19.17773 -0.15625,-0.57226 -0.96484,0 -0.36524,-1.33008 -0.96484,0 -0.36328,-1.32812 -0.96485,0 -0.36523,-1.33008 -0.96485,0 -0.36328,-1.32813 -0.96484,0 -0.36328,-1.32812 -0.96485,0 -0.36523,-1.33008 -0.96484,0 -0.36329,-1.32813 -0.96484,0 -0.36523,-1.33007 -0.96485,0 -0.36328,-1.32813 -0.96484,0 -0.36328,-1.32812 -0.96485,0 -0.36523,-1.33008 -0.96484,0 -0.36329,-1.32813 -0.96484,0 -0.36523,-1.33007 -0.96485,0 -0.36328,-1.32813 -14.9082,0 17.88281,56.17773 0.90625,0 0.42187,1.32813 0.90626,0 0.42382,1.33008 0.90625,0 0.42188,1.32812 0.90625,0 0.42383,1.33008 0.90625,0 0.42187,1.32813 0.90625,0 0.42188,1.32812 0.90625,0 0.42382,1.33008 0.90625,0 0.42188,1.32812 0.90625,0 0.42383,1.33008 0.90625,0 0.42187,1.32813 0.90625,0 0.42188,1.32812 0.90625,0 0.42383,1.33008 0.90625,0 0.42187,1.32813 0.90625,0 0.42383,1.33007 0.90625,0 0.42187,1.32813 0.90625,0 0.42188,1.32812 0.90625,0 0.42383,1.33008 0.90625,0 0.42187,1.32813 0.90625,0 0.42383,1.33007 0.90625,0 0.42187,1.32813 0.90626,0 0.42187,1.32813 0.90625,0 0.42383,1.33007 0.90625,0 0.42187,1.32813 0.90625,0 0.42383,1.33008 0.90625,0 0.42188,1.32812 0.90625,0 0.42187,1.32813 0.90625,0 0.42383,1.33007 0.90625,0 0.42187,1.32813 0.90625,0 0.42383,1.33008 0.90625,0 0.42188,1.32812 0.90625,0 0.42187,1.32813 0.90625,0 0.42383,1.33008 0.90625,0 0.42188,1.32812 0.90625,0 0.42382,1.33008 0.90625,0 0.42188,1.32812 0.90625,0 0.42187,1.32813 0.90625,0 0.42383,1.33008 0.90625,0 0.42188,1.32812 0.90625,0 0.42382,1.33008 0.90626,0 0.42187,1.32813 0.90625,0 0.42188,1.32812 0.90624,0 0.42383,1.33008 0.90625,0 0.01,0.0332 -5.83008,1.39649 0,13.36523 1.32813,-0.32812 0,1.65624 1.33007,-0.33007 0,1.66015 1.32813,-0.32812 0,1.65625 1.33008,-0.33008 0,1.66016 1.32812,-0.32813 0,1.65625 1.32813,-0.32812 0,1.65625 1.33007,-0.33008 0,1.66015 1.32813,-0.32812 0,1.65625 1.33008,-0.33008 0,1.66016 1.32812,-0.32813 0,1.65625 1.32813,-0.32812 0,1.65625 0.80469,-0.19922 0,30.37891 -16.5586,0 0,13.03515 1.32813,0 0,1.32813 1.33008,0 0,1.33007 1.32812,0 0,1.32813 1.33008,0 0,1.33008 1.32812,0 0,1.32812 1.32813,0 0,1.32813 1.33008,0 0,1.33008 1.32812,0 0,1.32812 1.33008,0 0,1.33008 1.32812,0 0,1.32812 1.32813,0 0,1.32813 1.33008,0 0,1.33008 1.32812,0 0,1.32812 1.33008,0 0,1.33008 1.32813,0 0,1.32812 1.32812,0 0,1.32813 1.33008,0 0,1.33008 1.32812,0 0,1.32812 1.33008,0 0,1.33008 1.32813,0 0,1.32813 1.32812,0 0,1.32812 1.33008,0 0,1.33008 1.32812,0 0,1.32812 1.33008,0 0,1.33008 1.32813,0 0,1.32813 1.32812,0 0,1.32812 1.33008,0 0,1.33008 1.32813,0 0,1.32813 1.33007,0 0,1.33007 1.32813,0 0,1.32813 1.32812,0 0,1.32812 1.33008,0 0,1.33008 1.32813,0 0,1.32813 1.33008,0 0,1.33007 1.32812,0 0,1.32813 1.32813,0 0,1.32813 1.33007,0 0,1.33007 1.32813,0 0,1.32813 1.33008,0 0,1.33008 1.32812,0 0,1.32812 1.32813,0 0,1.32813 1.33007,0 0,1.33007 1.32813,0 0,1.32813 1.33008,0 0,1.33008 1.32812,0 0,1.32812 1.32813,0 0,1.32813 1.33008,0 0,1.33008 1.32812,0 0,1.32812 1.33008,0 0,1.33008 1.32812,0 0,1.32812 1.32813,0 0,1.32813 1.33008,0 0,1.33008 1.32812,0 0,1.32812 1.33008,0 0,1.33008 1.32813,0 0,1.32813 1.32812,0 0,1.32812 1.33008,0 0,1.33008 1.32812,0 0,1.32812 1.33008,0 0,1.33008 1.32813,0 0,1.32813 1.32812,0 0,1.32812 1.33008,0 0,1.33008 1.32813,0 0,1.32812 1.33007,0 0,1.33008 1.32813,0 0,1.32813 1.32812,0 0,1.32812 1.33008,0 0,1.33008 1.32813,0 0,1.32813 1.33007,0 0,1.33007 1.32813,0 0,1.32813 1.32812,0 0,1.32812 1.33008,0 0,1.33008 1.32813,0 0,1.32813 1.33008,0 0,1.33008 1.32812,0 0,1.32812 1.32813,0 0,1.32812 1.33007,0 0,1.33008 1.32813,0 0,1.32813 1.32812,0 0,1.33008 1.33008,0 0,1.32812 1.32813,0 0,1.32813 1.33008,0 0,1.33007 1.32812,0 0,1.32813 1.32812,0 0,1.32812 1.33008,0 0,1.33008 1.32813,0 0,1.32813 1.33008,0 0,1.33008 1.32812,0 0,1.32812 1.32813,0 0,1.32813 1.33007,0 0,1.33007 1.32813,0 0,0.41797 136.51953,0 0,-289.24023 -0.33008,0 c 0.11038,-0.20521 0.22111,-0.41045 0.33008,-0.61524 l 0,-0.71289 -1.66016,0 c 0.23851,-0.44343 0.46718,-0.88515 0.71289,-1.33008 l -2.04101,0 c 0.2383,-0.44303 0.46738,-0.8836 0.71289,-1.32812 l -2.04102,0 c 0.23831,-0.44304 0.46738,-0.8836 0.7129,-1.32813 l -2.04297,0 c 0.23856,-0.44353 0.4671,-0.88504 0.71289,-1.33007 l -2.04102,0 c 0.2383,-0.44304 0.46739,-0.88361 0.71289,-1.32813 l -2.04297,0 c 0.23851,-0.44343 0.46717,-0.88515 0.71289,-1.33008 l -2.04101,0 c 0.2383,-0.44303 0.46738,-0.8836 0.71289,-1.32812 l -2.04102,0 c 0.2383,-0.44304 0.46739,-0.8836 0.71289,-1.32813 l -2.04296,0 c 0.23856,-0.44354 0.4671,-0.88504 0.71289,-1.33007 l -2.04102,0 c 0.2383,-0.44304 0.46739,-0.88361 0.71289,-1.32813 l -2.04297,0 c 0.23851,-0.44344 0.46716,-0.88515 0.71289,-1.33008 l -2.04101,0 c 0.2383,-0.44303 0.46738,-0.8836 0.71289,-1.32812 l -2.04102,0 c 0.2383,-0.44304 0.46739,-0.8836 0.71289,-1.32813 l -2.04297,0 c 0.23857,-0.44354 0.46711,-0.88505 0.71289,-1.33008 l -2.04101,0 c 0.2383,-0.44303 0.46738,-0.8836 0.71289,-1.32812 l -2.04297,0 c 0.23851,-0.44344 0.46716,-0.88515 0.71289,-1.33008 l -2.04101,0 c 0.2383,-0.44303 0.46738,-0.8836 0.71289,-1.32812 l -2.04102,0 c 0.2383,-0.44304 0.46739,-0.88361 0.71289,-1.32813 l -2.04297,0 c 0.23857,-0.44354 0.46711,-0.88505 0.71289,-1.33008 l -2.04101,0 c 0.2383,-0.44303 0.46738,-0.8836 0.71289,-1.32812 l -2.04297,0 c 0.23851,-0.44344 0.46716,-0.88516 0.71289,-1.33008 l -2.04102,0 c 0.23831,-0.44304 0.46738,-0.8836 0.7129,-1.32813 l -2.04102,0 c 0.2383,-0.44303 0.46738,-0.8836 0.71289,-1.32812 l -2.04297,0 c 0.23857,-0.44354 0.46711,-0.88505 0.71289,-1.33008 l -2.04101,0 c 0.2383,-0.44303 0.46738,-0.8836 0.71289,-1.32812 l -2.04297,0 c 0.23851,-0.44344 0.46716,-0.88516 0.71289,-1.33008 l -2.04102,0 c 0.2383,-0.44304 0.46739,-0.8836 0.71289,-1.32813 l -11.41992,0 z m -73.58008,31.19336 0,0.23633 -0.64062,0 c 0.21432,-0.0811 0.42719,-0.15754 0.64062,-0.23633 z"
       id="path11837" />
    <path
       inkscape:connector-curvature="0"
       style="fill:#ffffff;fill-opacity:1;stroke:none"
       d="m 446.06348,589.83924 c -5.28508,7.62676 -9.25089,15.24235 -11.86003,22.80201 -2.57556,7.52625 -3.85536,15.15183 -3.85536,22.91221 0,7.79379 1.2798,15.45928 3.85536,22.98541 2.57565,7.49293 6.54146,15.1118 11.86003,22.83886 l 11.41928,0 c -4.41535,-8.02805 -7.66299,-15.78983 -9.80368,-23.31607 -2.14082,-7.55967 -3.23121,-15.08238 -3.23121,-22.5082 0,-7.4927 1.09039,-14.9788 3.23121,-22.47149 2.14069,-7.49282 5.38833,-15.24811 9.80368,-23.24273 l -11.41928,0 z"
       id="path11194" />
    <path
       inkscape:connector-curvature="0"
       style="fill:#399ed7;fill-opacity:1;stroke:none"
       d="m 377.65745,591.56489 c -3.07739,1.2e-4 -6.27512,0.27603 -9.62017,0.84458 -3.34493,0.53534 -6.72558,1.31307 -10.17088,2.34998 l 0,13.47562 c 3.4453,-1.3379 6.77613,-2.38189 9.98735,-3.08426 3.2111,-0.70239 6.18616,-1.0281 8.99589,-1.0281 3.67946,0 6.54841,0.77784 8.5554,2.34999 2.04035,1.53861 3.04753,3.68602 3.04753,6.46236 0,2.64252 -1.00718,4.69681 -3.04753,6.16868 -2.00699,1.43831 -4.87594,2.16625 -8.5554,2.16625 l -7.89435,0 0,13.03489 7.89435,0 c 4.28164,1.3e-4 7.6092,1.05058 9.9507,3.15786 2.34137,2.07384 3.52493,5.0391 3.52493,8.88568 0,3.14443 -1.18356,5.65417 -3.52493,7.52731 -2.3415,1.83983 -5.53277,2.75397 -9.54674,2.75385 -4.01398,1.2e-4 -7.84675,-0.40881 -11.49285,-1.21161 -3.64597,-0.83633 -7.02663,-2.02627 -10.17087,-3.59844 l 0,13.7326 c 3.34493,1.20429 6.85532,2.15505 10.50139,2.79058 3.67946,0.63553 7.38241,0.95476 11.16233,0.95476 8.86418,0 15.61891,-1.91481 20.26844,-5.72809 4.6495,-3.81327 6.97644,-9.33793 6.97644,-16.59662 0,-5.41895 -1.37614,-9.79689 -4.18587,-13.10847 -2.80984,-3.34489 -6.91194,-5.489 -12.26386,-6.42563 4.71638,-0.86966 8.36305,-2.69784 10.90522,-5.50773 2.54221,-2.8432 3.81869,-6.4932 3.81869,-10.94199 0,-6.05437 -2.23058,-10.80133 -6.64592,-14.24662 -4.41545,-3.44531 -10.57506,-5.17731 -18.46929,-5.17743 z"
       id="path11196" />
    <path
       inkscape:connector-curvature="0"
       style="fill:#399ed7;fill-opacity:1;stroke:none"
       d="m 323.68173,610.18109 c -8.66351,0 -15.46147,2.60612 -20.37854,7.85771 -4.91718,5.21827 -7.38042,12.47165 -7.38042,21.7372 0,9.23212 2.46007,16.44548 7.34364,21.66375 4.8837,5.21815 11.64173,7.85772 20.30521,7.85772 3.27807,0 6.33621,-0.36573 9.17956,-1.10166 2.84322,-0.70239 5.52921,-1.79286 8.00456,-3.23119 l 0,-13.47561 c -2.20781,1.94013 -4.57468,3.36277 -7.04991,4.33284 -2.47532,0.93663 -5.12467,1.43196 -7.96789,1.43196 -4.78336,0 -8.47657,-1.50588 -11.05212,-4.51624 -2.57567,-3.01059 -3.85546,-7.34202 -3.85546,-12.96157 0,-5.61966 1.27979,-9.95428 3.85546,-12.9983 2.57555,-3.0439 6.26876,-4.55296 11.05212,-4.55296 2.74288,0 5.38893,0.50192 7.93112,1.5053 2.5757,0.97017 4.94586,2.38307 7.08668,4.22266 l 0,-13.47562 c -2.77637,-1.47162 -5.5988,-2.52868 -8.40853,-3.23118 -2.77636,-0.70226 -5.65496,-1.06481 -8.66548,-1.06481 z"
       id="path11198" />
    <path
       inkscape:connector-curvature="0"
       style="fill:#399ed7;fill-opacity:1;stroke:none"
       d="m 167.88655,611.65013 17.88168,56.17877 18.10211,0 17.84504,-56.17877 -14.90758,0 -12.0069,43.84143 -12.00678,-43.84143 -14.90757,0 z"
       id="path11200" />
    <path
       inkscape:connector-curvature="0"
       id="path11202"
       style="fill:#399ed7;fill-opacity:1;stroke:none"
       d="m 257.03829,621.67409 c 3.7463,1.1e-4 6.57519,1.00395 8.48183,3.01106 1.94013,1.97343 2.94404,4.89539 3.01089,8.77551 l -23.13245,0.0365 c 0.368,-3.77983 1.55473,-6.66177 3.56171,-8.7023 2.007,-2.07384 4.69958,-3.12088 8.07802,-3.121 z m -1.50551,-11.38248 c -7.54186,0.31159 -13.58091,2.98175 -18.06534,7.96778 -4.78323,5.31857 -7.15999,12.57194 -7.15999,21.73708 0,9.46637 2.46651,16.72293 7.41705,21.77393 4.98407,5.01746 12.19092,7.52718 21.59031,7.52718 3.94699,0 7.69001,-0.36232 11.23576,-1.06481 3.54562,-0.70239 7.01606,-1.75285 10.42796,-3.15774 l 0,-13.51222 c -3.57923,2.10727 -7.003,3.65647 -10.28108,4.62631 -3.27809,0.97017 -6.60892,1.46892 -9.98736,1.4688 -5.11785,1.2e-4 -8.95396,-1.09355 -11.52949,-3.26791 -2.57569,-2.17414 -3.89543,-5.4617 -3.92891,-9.87706 l 38.07681,0 0,-5.98516 c 0,-8.96456 -2.28698,-15.90212 -6.90301,-20.81928 -4.58267,-4.95037 -11.05824,-7.4169 -19.3872,-7.4169 -0.51642,0 -1.00261,-0.0211 -1.50551,0 z" />
    <path
       inkscape:connector-curvature="0"
       style="fill:#7ba212;fill-opacity:1;stroke:none"
       d="m 252.16456,721.36399 -15.49505,3.7085 0,13.36544 15.42163,-3.81868 0,48.61486 -16.55983,0 0,13.03502 47.51331,0 0,-13.03502 -16.55995,0 0,-61.87012 -14.32011,0 z"
       id="path11204" />
    <path
       inkscape:connector-curvature="0"
       style="fill:#7ba212;fill-opacity:1;stroke:none"
       d="m 310.43639,777.87329 0,18.39584 16.70671,0 0,-18.39584 -16.70671,0 z"
       id="path11208" />
    <rect
       y="694.94574"
       x="367.63885"
       height="134.04161"
       width="11.637332"
       id="rect11212"
       style="fill:#ffffff;fill-opacity:0.62745098;stroke:none" />
    <path
       style="fill:#ffffff;fill-opacity:1;stroke:none"
       d="m 437.75642,911.61613 c 0,35.52317 -28.79724,64.3203 -64.32019,64.3203 -35.52295,0 -64.32019,-28.79713 -64.32019,-64.3203 0,-35.52303 33.07427,-58.7621 64.32019,-90.00797 31.25139,31.25133 64.32019,54.48494 64.32019,90.00797 z"
       id="path11214"
       inkscape:connector-curvature="0"
       sodipodi:nodetypes="ssscs" />
  </g>
</svg>
