<?xml version="1.0" encoding="UTF-8" standalone="no"?>
<!-- Created with Inkscape (http://www.inkscape.org/) -->

<svg
   xmlns:dc="http://purl.org/dc/elements/1.1/"
   xmlns:cc="http://creativecommons.org/ns#"
   xmlns:rdf="http://www.w3.org/1999/02/22-rdf-syntax-ns#"
   xmlns:svg="http://www.w3.org/2000/svg"
   xmlns="http://www.w3.org/2000/svg"
   xmlns:xlink="http://www.w3.org/1999/xlink"
   xmlns:sodipodi="http://sodipodi.sourceforge.net/DTD/sodipodi-0.dtd"
   xmlns:inkscape="http://www.inkscape.org/namespaces/inkscape"
   width="108"
   height="108"
   id="svg3317"
   version="1.1"
   inkscape:version="0.91 r13725"
   sodipodi:docname="ic_launcher_foreground.svg"
   inkscape:export-filename="/home/markus/ic_launcher.png"
   inkscape:export-xdpi="90"
   inkscape:export-ydpi="90">
  <sodipodi:namedview
     id="base"
     pagecolor="#ffffff"
     bordercolor="#f0f0f0"
     borderopacity="1"
     inkscape:pageopacity="0.0"
     inkscape:pageshadow="2"
     inkscape:zoom="3.7175926"
     inkscape:cx="54"
     inkscape:cy="43.86688"
     inkscape:document-units="px"
     inkscape:current-layer="layer1"
     showgrid="false"
     showborder="true"
     inkscape:showpageshadow="false"
     inkscape:window-width="1426"
     inkscape:window-height="878"
     inkscape:window-x="109"
     inkscape:window-y="15"
     inkscape:window-maximized="0"
     showguides="true"
     inkscape:guide-bbox="true" />
  <defs
     id="defs3319">
    <linearGradient
       id="linearGradient13531"
       inkscape:collect="always">
      <stop
         id="stop13533"
         offset="0"
         style="stop-color:#000000;stop-opacity:1;" />
      <stop
         id="stop13535"
         offset="1"
         style="stop-color:#000000;stop-opacity:0;" />
    </linearGradient>
    <linearGradient
       y2="360.61719"
       x2="854.46484"
       y1="360.61719"
       x1="164.86719"
       gradientTransform="matrix(0.17482642,0,0,0.17482656,-0.36860961,31.24712)"
       gradientUnits="userSpaceOnUse"
       id="linearGradient6832"
       xlink:href="#linearGradient13531"
       inkscape:collect="always" />
  </defs>
  <metadata
     id="metadata3322">
    <rdf:RDF>
      <cc:Work
         rdf:about="">
        <dc:format>image/svg+xml</dc:format>
        <dc:type
           rdf:resource="http://purl.org/dc/dcmitype/StillImage" />
        <dc:title />
      </cc:Work>
    </rdf:RDF>
  </metadata>
  <g
     inkscape:label="Ebene 1"
     inkscape:groupmode="layer"
     id="layer1"
     transform="translate(0,-944.36218)">
    <flowRoot
       xml:space="preserve"
       id="flowRoot3776"
       style="font-style:normal;font-weight:normal;font-size:40px;line-height:125%;font-family:Sans;letter-spacing:0px;word-spacing:0px;fill:#000000;fill-opacity:1;stroke:none;stroke-width:1px;stroke-linecap:butt;stroke-linejoin:miter;stroke-opacity:1"><flowRegion
         id="flowRegion3778"><rect
           id="rect3780"
           width="29"
           height="71"
           x="52"
           y="60" /></flowRegion><flowPara
         id="flowPara3782" /></flowRoot>    <text
       xml:space="preserve"
       style="font-style:normal;font-weight:normal;font-size:40px;line-height:125%;font-family:Sans;letter-spacing:0px;word-spacing:0px;fill:#000000;fill-opacity:1;stroke:none"
       x="4676.4058"
       y="3368.0371"
       id="text5084"
       sodipodi:linespacing="125%"><tspan
         sodipodi:role="line"
         id="tspan5086"
         x="4676.4058"
         y="3368.0371" /></text>
    <flowRoot
       xml:space="preserve"
       id="flowRoot3776-6"
       style="font-style:normal;font-weight:normal;font-size:40px;line-height:125%;font-family:Sans;letter-spacing:0px;word-spacing:0px;fill:#000000;fill-opacity:1;stroke:none;stroke-width:1px;stroke-linecap:butt;stroke-linejoin:miter;stroke-opacity:1"
       transform="translate(532.64516,-5.806285)"><flowRegion
         id="flowRegion3778-7"><rect
           id="rect3780-2"
           width="29"
           height="71"
           x="52"
           y="60" /></flowRegion><flowPara
         id="flowPara3782-0" /></flowRoot>    <text
       xml:space="preserve"
       style="font-style:normal;font-weight:normal;font-size:40px;line-height:125%;font-family:Sans;letter-spacing:0px;word-spacing:0px;fill:#000000;fill-opacity:1;stroke:none"
       x="5209.0508"
       y="3362.2307"
       id="text5084-0"
       sodipodi:linespacing="125%"><tspan
         sodipodi:role="line"
         id="tspan5086-1"
         x="5209.0508"
         y="3362.2307" /></text>
    <flowRoot
       xml:space="preserve"
       id="flowRoot3776-8"
       style="font-style:normal;font-weight:normal;font-size:40px;line-height:125%;font-family:Sans;letter-spacing:0px;word-spacing:0px;fill:#000000;fill-opacity:1;stroke:none;stroke-width:1px;stroke-linecap:butt;stroke-linejoin:miter;stroke-opacity:1"
       transform="translate(658.04407,24.647949)"><flowRegion
         id="flowRegion3778-4"><rect
           id="rect3780-5"
           width="29"
           height="71"
           x="52"
           y="60" /></flowRegion><flowPara
         id="flowPara3782-2" /></flowRoot>    <text
       xml:space="preserve"
       style="font-style:normal;font-weight:normal;font-size:40px;line-height:125%;font-family:Sans;letter-spacing:0px;word-spacing:0px;fill:#000000;fill-opacity:1;stroke:none"
       x="5334.4497"
       y="3392.6851"
       id="text5084-3"
       sodipodi:linespacing="125%"><tspan
         sodipodi:role="line"
         id="tspan5086-18"
         x="5334.4497"
         y="3392.6851" /></text>
    <flowRoot
       xml:space="preserve"
       id="flowRoot3776-2"
       style="font-style:normal;font-weight:normal;font-size:4.31339216px;line-height:125%;font-family:Sans;letter-spacing:0px;word-spacing:0px;fill:#000000;fill-opacity:1;stroke:none;stroke-width:1px;stroke-linecap:butt;stroke-linejoin:miter;stroke-opacity:1"><flowRegion
         id="flowRegion3778-41"><rect
           id="rect3780-54"
           width="3.1272094"
           height="7.6562715"
           x="32.001694"
           y="919.38837" /></flowRegion><flowPara
         id="flowPara3782-28" /></flowRoot>    <text
       xml:space="preserve"
       style="font-style:normal;font-weight:normal;font-size:4.31339216px;line-height:125%;font-family:Sans;letter-spacing:0px;word-spacing:0px;fill:#000000;fill-opacity:1;stroke:none"
       x="530.67358"
       y="1276.1099"
       id="text5084-7"
       sodipodi:linespacing="125%"><tspan
         sodipodi:role="line"
         id="tspan5086-8"
         x="530.67358"
         y="1276.1099" /></text>
    <flowRoot
       xml:space="preserve"
       id="flowRoot3776-6-6"
       style="font-style:normal;font-weight:normal;font-size:40px;line-height:125%;font-family:Sans;letter-spacing:0px;word-spacing:0px;fill:#000000;fill-opacity:1;stroke:none;stroke-width:1px;stroke-linecap:butt;stroke-linejoin:miter;stroke-opacity:1"
       transform="matrix(0.15319136,0,0,0.15319148,127.35392,875.47681)"><flowRegion
         id="flowRegion3778-9"><rect
           id="rect3780-6"
           width="29"
           height="71"
           x="52"
           y="60" /></flowRegion><flowPara
         id="flowPara3782-8" /></flowRoot>    <text
       xml:space="preserve"
       style="font-style:normal;font-weight:normal;font-size:6.12765694px;line-height:125%;font-family:Sans;letter-spacing:0px;word-spacing:0px;fill:#000000;fill-opacity:1;stroke:none"
       x="843.73926"
       y="1391.4308"
       id="text5084-3-4"
       sodipodi:linespacing="125%"><tspan
         sodipodi:role="line"
         id="tspan5086-9"
         x="843.73926"
         y="1391.4308" /></text>
    <flowRoot
       xml:space="preserve"
       id="flowRoot3776-0"
       style="font-style:normal;font-weight:normal;font-size:40px;line-height:125%;font-family:Sans;letter-spacing:0px;word-spacing:0px;fill:#000000;fill-opacity:1;stroke:none;stroke-width:1px;stroke-linecap:butt;stroke-linejoin:miter;stroke-opacity:1"
       transform="matrix(0.15319136,0,0,0.15319148,14.782981,876.36628)"><flowRegion
         id="flowRegion3778-6"><rect
           id="rect3780-9"
           width="29"
           height="71"
           x="52"
           y="60" /></flowRegion><flowPara
         id="flowPara3782-3" /></flowRoot>    <text
       xml:space="preserve"
       style="font-style:normal;font-weight:normal;font-size:6.12765694px;line-height:125%;font-family:Sans;letter-spacing:0px;word-spacing:0px;fill:#000000;fill-opacity:1;stroke:none"
       x="731.16821"
       y="1392.3203"
       id="text5084-9"
       sodipodi:linespacing="125%"><tspan
         sodipodi:role="line"
         id="tspan5086-96"
         x="731.16821"
         y="1392.3203" /></text>
    <flowRoot
       xml:space="preserve"
       id="flowRoot5144"
       style="font-style:normal;font-weight:normal;font-size:40px;line-height:125%;font-family:Sans;letter-spacing:0px;word-spacing:0px;fill:#000000;fill-opacity:1;stroke:none;stroke-width:1px;stroke-linecap:butt;stroke-linejoin:miter;stroke-opacity:1"
       transform="matrix(0.16554551,0,0,0.16554564,-16.191329,1002.8288)"><flowRegion
         id="flowRegion5146"><rect
           id="rect5148"
           width="29"
           height="71"
           x="52"
           y="60" /></flowRegion><flowPara
         id="flowPara5150" /></flowRoot>    <text
       xml:space="preserve"
       style="font-style:normal;font-weight:normal;font-size:6.62182283px;line-height:125%;font-family:Sans;letter-spacing:0px;word-spacing:0px;fill:#000000;fill-opacity:1;stroke:none"
       x="757.96692"
       y="1560.3921"
       id="text5152"
       sodipodi:linespacing="125%"><tspan
         sodipodi:role="line"
         id="tspan5154"
         x="757.96692"
         y="1560.3921" /></text>
    <flowRoot
       xml:space="preserve"
       id="flowRoot5388"
       style="font-style:normal;font-weight:normal;font-size:40px;line-height:125%;font-family:Sans;letter-spacing:0px;word-spacing:0px;fill:#000000;fill-opacity:1;stroke:none;stroke-width:1px;stroke-linecap:butt;stroke-linejoin:miter;stroke-opacity:1"
       transform="matrix(0.20754958,0,0,0.20754975,18,1009.1389)"><flowRegion
         id="flowRegion5390"><rect
           id="rect5392"
           width="29"
           height="71"
           x="52"
           y="60" /></flowRegion><flowPara
         id="flowPara5394" /></flowRoot>    <text
       xml:space="preserve"
       style="font-style:normal;font-weight:normal;font-size:8.30198669px;line-height:125%;font-family:Sans;letter-spacing:0px;word-spacing:0px;fill:#000000;fill-opacity:1;stroke:none"
       x="988.58643"
       y="1708.1735"
       id="text5396"
       sodipodi:linespacing="125%"><tspan
         sodipodi:role="line"
         id="tspan5398"
         x="988.58643"
         y="1708.1735" /></text>
    <flowRoot
       xml:space="preserve"
       id="flowRoot3776-2-9"
       style="font-style:normal;font-weight:normal;font-size:40px;line-height:125%;font-family:Sans;letter-spacing:0px;word-spacing:0px;fill:#000000;fill-opacity:1;stroke:none;stroke-width:1px;stroke-linecap:butt;stroke-linejoin:miter;stroke-opacity:1"
       transform="matrix(0.15319136,0,0,0.15319148,274.51689,845.19743)"><flowRegion
         id="flowRegion3778-7-9"><rect
           id="rect3780-0"
           width="29"
           height="71"
           x="52"
           y="60" /></flowRegion><flowPara
         id="flowPara3782-5" /></flowRoot>    <text
       xml:space="preserve"
       style="font-style:normal;font-weight:normal;font-size:6.12765694px;line-height:125%;font-family:Sans;letter-spacing:0px;word-spacing:0px;fill:#000000;fill-opacity:1;stroke:none"
       x="990.90228"
       y="1361.1515"
       id="text5084-7-9"
       sodipodi:linespacing="125%"><tspan
         sodipodi:role="line"
         id="tspan5086-0"
         x="990.90228"
         y="1361.1515" /></text>
    <path
       style="fill:#303030;fill-opacity:1;stroke:none;stroke-width:4;stroke-linecap:butt;stroke-linejoin:miter;stroke-miterlimit:4;stroke-dasharray:none;stroke-opacity:1"
       d="M 89.999939,968.5428 18,983.92119 l -18,4.26727 0,64.17374 108,0 0,-87.7338 z"
       id="rect6834"
       inkscape:connector-curvature="0"
       sodipodi:nodetypes="ccccccc" />
    <path
       style="opacity:0.3;fill:url(#linearGradient6832);fill-opacity:1;stroke:none"
       d="M 77.087891 41.283203 C 75.341586 42.995493 74.777458 47.01016 74.113281 48.21875 C 71.957006 46.20934 70.07003 43.86195 67.720703 42.09375 C 66.058362 41.51624 62.04341 40.923686 61.667969 42.947266 C 61.43426 44.365346 62.014135 44.616742 62.365234 45.195312 C 64.223568 46.735902 63.704447 47.212053 63.607422 49.033203 C 64.817907 49.957053 65.8777 51.257864 66.859375 52.308594 C 65.82973 53.608184 64.956265 51.779306 64.251953 51.166016 C 62.756288 49.621986 61.082922 48.329823 59.837891 46.751953 C 58.837031 45.549043 57.082548 44.585905 55.138672 44.859375 C 52.46415 44.612965 50.915005 47.885963 50.683594 49.408203 C 49.112954 48.006713 47.8593 46.172111 45.980469 45.181641 C 43.606938 43.675921 40.435456 46.342063 39.699219 47.033203 C 38.681032 46.302333 37.998929 45.041433 37.060547 45.095703 C 36.074746 45.083103 34.874246 44.790514 34.960938 46.183594 C 34.655107 46.705624 34.606941 48.765799 34.101562 48.193359 C 32.914023 47.114139 31.880855 45.924813 30.416016 45.095703 C 29.576818 45.195843 27.84048 44.638385 28.748047 46.015625 L 31.582031 54.916016 C 34.584818 57.860476 37.60625 60.734994 40.410156 63.746094 C 40.757226 64.130094 42.160756 64.851141 40.714844 64.869141 C 40.324007 65.186741 40.321225 67.073478 40.712891 67.205078 L 42.802734 69.583984 C 43.507813 69.659984 43.038966 71.235509 43.175781 72.037109 L 43.175781 75.09375 C 42.262807 75.19945 40.926308 74.880306 40.28125 75.253906 C 40.398625 76.050906 39.964813 77.398116 40.673828 77.603516 L 72.601562 108 L 108 108 L 108 69.439453 L 78.439453 41.283203 C 77.988718 41.283203 77.538611 41.283183 77.087891 41.283203 z M 64.222656 46.736328 C 64.278616 46.862348 63.909318 46.738328 64.222656 46.736328 z "
       transform="translate(0,944.36218)"
       id="path6814" />
    <path
       inkscape:connector-curvature="0"
       style="fill:#ffffff;fill-opacity:1;stroke:none"
       d="m 77.087347,985.64467 c -0.923974,1.33336 -1.617302,2.66476 -2.073445,3.98639 -0.450275,1.31579 -0.674011,2.64894 -0.674011,4.00567 0,1.36256 0.223736,2.70269 0.674011,4.01846 0.450291,1.30996 1.14362,2.64191 2.073445,3.99281 l 1.99639,0 c -0.771916,-1.4035 -1.339689,-2.76046 -1.713936,-4.07624 -0.374277,-1.32163 -0.564908,-2.6368 -0.564908,-3.93503 0,-1.30993 0.190631,-2.6187 0.564908,-3.92862 0.374247,-1.30994 0.94202,-2.66577 1.713936,-4.06344 l -1.99639,0 z"
       id="path6816" />
    <path
       inkscape:connector-curvature="0"
       style="fill:#399ed7;fill-opacity:1;stroke:none"
       d="m 65.128173,985.94635 c -0.538009,3e-5 -1.097065,0.0483 -1.681873,0.14766 -0.584777,0.0936 -1.175805,0.22956 -1.778138,0.41084 l 0,2.3559 c 0.602333,-0.2339 1.184659,-0.41642 1.74606,-0.53922 0.561385,-0.12279 1.0815,-0.17973 1.572723,-0.17973 0.643266,0 1.14483,0.13598 1.4957,0.41084 0.356721,0.26899 0.532799,0.64441 0.532799,1.12979 0,0.46198 -0.176078,0.82113 -0.532799,1.07845 -0.35087,0.25145 -0.852434,0.37872 -1.4957,0.37872 l -1.380147,0 0,2.27884 1.380147,0 c 0.748539,2e-5 1.330284,0.18367 1.739641,0.55208 0.409328,0.36256 0.616243,0.88097 0.616243,1.55345 0,0.54973 -0.206915,0.9885 -0.616243,1.31597 -0.409357,0.32166 -0.96728,0.48147 -1.669019,0.48145 -0.701755,2e-5 -1.371829,-0.0715 -2.009258,-0.21182 -0.637414,-0.14621 -1.228442,-0.35425 -1.778138,-0.6291 l 0,2.40082 c 0.584777,0.21054 1.198492,0.37676 1.835922,0.48787 0.643265,0.11111 1.290637,0.16692 1.951474,0.16692 1.549683,0 2.73059,-0.33477 3.543454,-1.00143 0.812864,-0.66666 1.219663,-1.63252 1.219663,-2.90153 0,-0.94737 -0.240587,-1.71275 -0.731795,-2.29171 -0.491239,-0.58477 -1.208389,-0.95962 -2.144051,-1.12337 0.824553,-0.15204 1.462089,-0.47165 1.906528,-0.96289 0.444439,-0.49707 0.667608,-1.13519 0.667608,-1.91296 0,-1.05846 -0.389964,-1.88835 -1.16188,-2.49068 -0.771947,-0.60233 -1.848805,-0.90513 -3.228921,-0.90516 z"
       id="path6818" />
    <path
       inkscape:connector-curvature="0"
       style="fill:#399ed7;fill-opacity:1;stroke:none"
       d="m 55.691784,989.20096 c -1.514603,0 -2.703077,0.45562 -3.56271,1.37374 -0.859649,0.91229 -1.290285,2.18037 -1.290285,3.80024 0,1.61402 0.430085,2.8751 1.283866,3.7874 0.853797,0.91227 2.03527,1.37374 3.549888,1.37374 0.573089,0 1.107727,-0.0639 1.604817,-0.1926 0.497076,-0.1228 0.966653,-0.31345 1.399419,-0.5649 l 0,-2.3559 c -0.385981,0.33919 -0.799782,0.5879 -1.232517,0.7575 -0.43275,0.16375 -0.895924,0.25034 -1.392999,0.25034 -0.836257,0 -1.481928,-0.26326 -1.932203,-0.78956 -0.450291,-0.52633 -0.674027,-1.28357 -0.674027,-2.26602 0,-0.98247 0.223736,-1.74028 0.674027,-2.27245 0.450275,-0.53215 1.095946,-0.79598 1.932203,-0.79598 0.479535,0 0.942127,0.0878 1.386565,0.26317 0.450306,0.16961 0.864674,0.41662 1.238951,0.73823 l 0,-2.3559 c -0.485387,-0.25727 -0.978816,-0.44208 -1.47004,-0.56489 -0.485371,-0.12278 -0.988636,-0.18616 -1.514955,-0.18616 z"
       id="path6820" />
    <path
       inkscape:connector-curvature="0"
       style="fill:#399ed7;fill-opacity:1;stroke:none"
       d="m 28.454666,989.45779 3.126192,9.82154 3.164734,0 3.119788,-9.82154 -2.606244,0 -2.09912,7.66464 -2.099105,-7.66464 -2.606245,0 z"
       id="path6822" />
    <path
       inkscape:connector-curvature="0"
       id="path6824"
       style="fill:#399ed7;fill-opacity:1;stroke:none"
       d="m 44.040754,991.21024 c 0.654954,2e-5 1.149517,0.17552 1.482846,0.52642 0.339181,0.345 0.514692,0.85584 0.526381,1.53419 l -4.04416,0.006 c 0.06434,-0.66082 0.271807,-1.16466 0.622677,-1.5214 0.350885,-0.36256 0.821611,-0.54561 1.412256,-0.54563 z m -0.263198,-1.98996 c -1.318518,0.0545 -2.374313,0.52129 -3.158301,1.39298 -0.836241,0.92983 -1.251757,2.19791 -1.251757,3.80022 0,1.65497 0.431203,2.92361 1.296688,3.80666 0.871353,0.87719 2.131306,1.31595 3.774559,1.31595 0.690035,0 1.344423,-0.0633 1.964311,-0.18615 0.619874,-0.1228 1.226588,-0.30645 1.823085,-0.55206 l 0,-2.36229 c -0.625741,0.3684 -1.224306,0.63924 -1.79741,0.8088 -0.573089,0.16961 -1.155415,0.2568 -1.746044,0.25678 -0.894745,2e-5 -1.565401,-0.19118 -2.015661,-0.57132 -0.450306,-0.38009 -0.681028,-0.95485 -0.68688,-1.72677 l 6.656823,0 0,-1.04636 c 0,-1.56725 -0.399814,-2.78011 -1.206826,-3.63977 -0.801175,-0.86545 -1.933275,-1.29667 -3.389389,-1.29667 -0.09029,0 -0.175282,-0.004 -0.263198,0 z" />
    <path
       inkscape:connector-curvature="0"
       style="fill:#7ba212;fill-opacity:1;stroke:none"
       d="m 43.188703,1008.6387 -2.708959,0.6483 0,2.3367 2.696122,-0.6676 0,8.4991 -2.895102,0 0,2.2789 8.306587,0 0,-2.2789 -2.895118,0 0,-10.8165 -2.50353,0 z"
       id="path6826" />
    <path
       inkscape:connector-curvature="0"
       style="fill:#7ba212;fill-opacity:1;stroke:none"
       d="m 53.376159,1018.518 0,3.2161 2.920761,0 0,-3.2161 -2.920761,0 z"
       id="path6828" />
    <rect
       y="1004.0201"
       x="63.376656"
       height="23.434034"
       width="2.0345132"
       id="rect6830"
       style="fill:#ffffff;fill-opacity:1;stroke:#ffffff;stroke-width:0.13941291" />
    <flowRoot
       xml:space="preserve"
       id="flowRoot3776-27"
       style="font-style:normal;font-weight:normal;font-size:6.12765694px;line-height:125%;font-family:Sans;letter-spacing:0px;word-spacing:0px;fill:#000000;fill-opacity:1;stroke:none;stroke-width:1px;stroke-linecap:butt;stroke-linejoin:miter;stroke-opacity:1"><flowRegion
         id="flowRegion3778-8"><rect
           id="rect3780-3"
           width="4.4425492"
           height="10.876595"
           x="142.74896"
           y="885.55774" /></flowRegion><flowPara
         id="flowPara3782-29" /></flowRoot>    <text
       xml:space="preserve"
       style="font-style:normal;font-weight:normal;font-size:6.12765694px;line-height:125%;font-family:Sans;letter-spacing:0px;word-spacing:0px;fill:#000000;fill-opacity:1;stroke:none"
       x="851.16827"
       y="1392.3203"
       id="text5084-53"
       sodipodi:linespacing="125%"><tspan
         sodipodi:role="line"
         id="tspan5086-50"
         x="851.16827"
         y="1392.3203" /></text>
    <g
       id="g4345"
       transform="matrix(0.15937415,-0.01540476,0.01540475,0.15937427,10.45415,835.19815)">
      <path
         transform="matrix(-0.71624605,0,0,0.71624605,252.9668,272.6866)"
         id="path4155"
         d="m 70.800257,803.10815 c 18.72634,-10.81207 42.064013,-4.55865 52.875453,14.16738 6.21553,10.76497 6.67525,22.98383 2.43735,33.71348 9.95484,0.22482 20.00712,3.82743 29.87632,9.35284 5.70581,-16.36426 17.92669,-30.34 32.41043,-37.86744 a 7.6098878,7.6098878 0 0 1 2.05397,-0.12843 7.6098878,7.6098878 0 0 1 2.05385,-0.12842 7.6098878,7.6098878 0 0 1 3.78076,1.01708 7.6098878,7.6098878 0 0 1 2.18403,1.941 7.6098878,7.6098878 0 0 1 1.16879,5.70957 7.6098878,7.6098878 0 0 1 -0.34046,1.25368 7.6098878,7.6098878 0 0 1 -0.34045,1.25368 7.6098878,7.6098878 0 0 1 -1.13869,1.71405 7.6098878,7.6098878 0 0 1 -2.39442,1.38323 c -12.33033,6.40652 -22.54596,18.62752 -26.1492,32.12255 6.50822,5.40015 12.37934,12.05934 17.69138,19.58251 2.94622,-3.19898 6.27645,-6.41509 9.78804,-8.85073 10.09338,-6.95039 22.03067,-10.77888 33.55578,-11.9223 a 7.6098878,7.6098878 0 0 1 1.25571,0.33189 7.6098878,7.6098878 0 0 1 2.51017,0.66378 7.6098878,7.6098878 0 0 1 2.18447,1.94102 7.6098878,7.6098878 0 0 1 2.42684,6.04679 7.6098878,7.6098878 0 0 1 -1.00849,3.78247 7.6098878,7.6098878 0 0 1 -1.5963,0.92072 7.6098878,7.6098878 0 0 1 -1.59626,0.92072 7.6098878,7.6098878 0 0 1 -2.85201,0.58884 c -13.65036,1.36931 -27.8309,8.78649 -36.37383,19.9433 4.14518,8.3272 7.21579,16.27327 8.91185,24.65187 15.54086,-3.62622 31.79047,-2.0192 45.28817,4.71176 a 7.6098878,7.6098878 0 0 1 1.71243,1.12411 7.6098878,7.6098878 0 0 1 1.84305,3.19152 7.6098878,7.6098878 0 0 1 0.45715,0.79218 7.6098878,7.6098878 0 0 1 0.58777,2.8607 7.6098878,7.6098878 0 0 1 -0.34045,1.25368 7.6098878,7.6098878 0 0 1 -0.34046,1.25368 7.6098878,7.6098878 0 0 1 -1.1386,1.71511 7.6098878,7.6098878 0 0 1 -1.1387,1.71411 7.6098878,7.6098878 0 0 1 -2.05385,0.12842 7.6098878,7.6098878 0 0 1 -1.59627,0.92073 7.6098878,7.6098878 0 0 1 -1.25582,-0.33184 7.6098878,7.6098878 0 0 1 -2.51059,-0.66378 7.6098878,7.6098878 0 0 1 -1.25572,-0.33193 c -10.93219,-5.45468 -24.04674,-6.71593 -36.1414,-3.61644 0.84257,22.7793 -7.86138,42.849 -24.91405,52.6953 -17.24869,9.95781 -39.08043,6.90761 -58.55086,-5.565 -8.96849,9.0596 -14.53598,22.16701 -15.27897,34.36191 a 7.6098878,7.6098878 0 0 1 0.11664,2.0437 7.6098878,7.6098878 0 0 1 -0.34045,1.2537 7.6098878,7.6098878 0 0 1 -0.79867,0.4604 7.6098878,7.6098878 0 0 1 -1.1387,1.7141 7.6098878,7.6098878 0 0 1 -0.79761,0.4603 7.6098878,7.6098878 0 0 1 -1.59628,0.9207 7.6098878,7.6098878 0 0 1 -2.05385,0.129 7.6098878,7.6098878 0 0 1 -2.053973,0.1289 7.6098878,7.6098878 0 0 1 -4.69933,-2.6091 7.6098878,7.6098878 0 0 1 -0.45715,-0.7922 7.6098878,7.6098878 0 0 1 -1.04491,-3.6529 7.6098878,7.6098878 0 0 1 0.34045,-1.2527 c 0.91965,-15.0554 7.652193,-29.93151 18.564363,-41.57551 -6.41905,-5.6678 -12.547323,-11.8152 -17.691493,-19.58247 -13.6403,2.06297 -26.80473,10.14937 -34.66043,21.06847 a 7.6098878,7.6098878 0 0 1 -0.34045,1.2537 7.6098878,7.6098878 0 0 1 -0.79761,0.4604 7.6098878,7.6098878 0 0 1 -5.24642,1.9721 7.6098878,7.6098878 0 0 1 -1.25572,-0.3319 7.6098878,7.6098878 0 0 1 -4.23746,-1.8104 7.6098878,7.6098878 0 0 1 -0.45714,-0.7923 7.6098878,7.6098878 0 0 1 -1.04492,-3.6539 7.6098878,7.6098878 0 0 1 -0.45822,-0.7923 7.6098878,7.6098878 0 0 1 1.00851,-3.7825 7.6098878,7.6098878 0 0 1 0.34045,-1.2536 c 6.76957,-9.3808 16.03633,-17.83431 27.10278,-23.09844 3.86662,-1.82118 8.31639,-3.09838 12.56029,-4.05121 -3.85055,-8.35079 -6.69506,-16.79143 -8.11382,-25.11222 -13.48882,-3.62722 -29.18257,-0.8993 -40.89482,6.58318 a 7.6098878,7.6098878 0 0 1 -1.59627,0.92073 7.6098878,7.6098878 0 0 1 -2.05386,0.12842 7.6098878,7.6098878 0 0 1 -2.05396,0.12843 7.6098878,7.6098878 0 0 1 -3.78033,-1.01711 7.6098878,7.6098878 0 0 1 -0.45714,-0.79226 7.6098878,7.6098878 0 0 1 -1.84348,-3.19254 7.6098878,7.6098878 0 0 1 -0.45715,-0.79225 7.6098878,7.6098878 0 0 1 0.55137,-4.57469 7.6098878,7.6098878 0 0 1 1.59627,-0.92074 7.6098878,7.6098878 0 0 1 0.34046,-1.25368 7.6098878,7.6098878 0 0 1 0.79759,-0.46035 7.6098878,7.6098878 0 0 1 0.34046,-1.25262 c 13.75648,-8.78862 31.97364,-12.37945 48.99964,-9.13551 0.14989,-11.34095 2.02912,-21.8008 6.83756,-30.5509 -11.50435,-1.63589 -22.5161,-7.66449 -28.77541,-18.50548 -10.81155,-18.72602 -3.76051,-42.52566 14.96583,-53.33667 z"
         style="fill:#f9f9f9;fill-opacity:1;stroke:none"
         inkscape:connector-curvature="0" />
      <path
         id="path3847"
         d="m 172.88153,898.78816 c 1.83132,1.05745 -6.95107,19.96031 -20.00325,42.56771 -13.05188,22.60654 -25.3621,40.23658 -27.19342,39.17911 -1.83139,-1.05746 7.28157,-20.53316 20.33346,-43.13977 13.05218,-22.60659 25.03181,-39.66449 26.86321,-38.60705 z"
         style="fill:#e6e6e6;fill-opacity:1;stroke:none"
         inkscape:connector-curvature="0" />
    </g>
  </g>
</svg>
