<?xml version="1.0" encoding="UTF-8" standalone="no"?>
<!-- Created with Inkscape (http://www.inkscape.org/) -->

<svg
   xmlns:dc="http://purl.org/dc/elements/1.1/"
   xmlns:cc="http://creativecommons.org/ns#"
   xmlns:rdf="http://www.w3.org/1999/02/22-rdf-syntax-ns#"
   xmlns:svg="http://www.w3.org/2000/svg"
   xmlns="http://www.w3.org/2000/svg"
   xmlns:xlink="http://www.w3.org/1999/xlink"
   xmlns:sodipodi="http://sodipodi.sourceforge.net/DTD/sodipodi-0.dtd"
   xmlns:inkscape="http://www.inkscape.org/namespaces/inkscape"
   width="512"
   height="512"
   id="svg3317"
   version="1.1"
   inkscape:version="0.91 r13725"
   sodipodi:docname="ic_launcher.svg"
   inkscape:export-filename="/home/markus/ic_launcher.png"
   inkscape:export-xdpi="90"
   inkscape:export-ydpi="90">
  <sodipodi:namedview
     id="base"
     pagecolor="#ffffff"
     bordercolor="#f0f0f0"
     borderopacity="1"
     inkscape:pageopacity="0.0"
     inkscape:pageshadow="2"
     inkscape:zoom="0.96875"
     inkscape:cx="256"
     inkscape:cy="256"
     inkscape:document-units="px"
     inkscape:current-layer="layer1"
     showgrid="false"
     showborder="true"
     inkscape:showpageshadow="false"
     inkscape:window-width="1243"
     inkscape:window-height="697"
     inkscape:window-x="109"
     inkscape:window-y="15"
     inkscape:window-maximized="0"
     showguides="true"
     inkscape:guide-bbox="true" />
  <defs
     id="defs3319">
    <linearGradient
       id="linearGradient13531"
       inkscape:collect="always">
      <stop
         id="stop13533"
         offset="0"
         style="stop-color:#000000;stop-opacity:1;" />
      <stop
         id="stop13535"
         offset="1"
         style="stop-color:#000000;stop-opacity:0;" />
    </linearGradient>
    <linearGradient
       y2="360.61719"
       x2="854.46484"
       y1="360.61719"
       x1="164.86719"
       gradientTransform="matrix(1.141229,0,0,1.141229,-98.9063,647.8364)"
       gradientUnits="userSpaceOnUse"
       id="linearGradient6832"
       xlink:href="#linearGradient13531"
       inkscape:collect="always" />
  </defs>
  <metadata
     id="metadata3322">
    <rdf:RDF>
      <cc:Work
         rdf:about="">
        <dc:format>image/svg+xml</dc:format>
        <dc:type
           rdf:resource="http://purl.org/dc/dcmitype/StillImage" />
        <dc:title />
      </cc:Work>
    </rdf:RDF>
  </metadata>
  <g
     inkscape:label="Ebene 1"
     inkscape:groupmode="layer"
     id="layer1"
     transform="translate(0,-540.36218)">
    <flowRoot
       xml:space="preserve"
       id="flowRoot3776"
       style="fill:black;stroke:none;stroke-opacity:1;stroke-width:1px;stroke-linejoin:miter;stroke-linecap:butt;fill-opacity:1;font-family:Sans;font-style:normal;font-weight:normal;font-size:40px;line-height:125%;letter-spacing:0px;word-spacing:0px"><flowRegion
         id="flowRegion3778"><rect
           id="rect3780"
           width="29"
           height="71"
           x="52"
           y="60" /></flowRegion><flowPara
         id="flowPara3782" /></flowRoot>    <text
       xml:space="preserve"
       style="font-size:40px;font-style:normal;font-weight:normal;line-height:125%;letter-spacing:0px;word-spacing:0px;fill:#000000;fill-opacity:1;stroke:none;font-family:Sans"
       x="4676.4058"
       y="3368.0371"
       id="text5084"
       sodipodi:linespacing="125%"><tspan
         sodipodi:role="line"
         id="tspan5086"
         x="4676.4058"
         y="3368.0371" /></text>
    <g
       id="layer1-2"
       inkscape:label="Ebene 1"
       transform="translate(-2e-4,-10e-6)">
      <flowRoot
         transform="translate(734.83871,-5.8062752)"
         style="font-style:normal;font-weight:normal;font-size:40px;line-height:125%;font-family:Sans;letter-spacing:0px;word-spacing:0px;fill:#000000;fill-opacity:1;stroke:none;stroke-width:1px;stroke-linecap:butt;stroke-linejoin:miter;stroke-opacity:1"
         id="flowRoot3776-6"
         xml:space="preserve"><flowRegion
           id="flowRegion3778-9"><rect
             y="60"
             x="52"
             height="71"
             width="29"
             id="rect3780-6" /></flowRegion><flowPara
           id="flowPara3782-8" /></flowRoot>      <text
         sodipodi:linespacing="125%"
         id="text5084-3"
         y="3362.2307"
         x="5411.2446"
         style="font-style:normal;font-weight:normal;font-size:40px;line-height:125%;font-family:Sans;letter-spacing:0px;word-spacing:0px;fill:#000000;fill-opacity:1;stroke:none"
         xml:space="preserve"><tspan
           y="3362.2307"
           x="5411.2446"
           id="tspan5086-9"
           sodipodi:role="line" /></text>
      <flowRoot
         style="font-style:normal;font-weight:normal;font-size:40px;line-height:125%;font-family:Sans;letter-spacing:0px;word-spacing:0px;fill:#000000;fill-opacity:1;stroke:none;stroke-width:1px;stroke-linecap:butt;stroke-linejoin:miter;stroke-opacity:1"
         id="flowRoot3776-9"
         xml:space="preserve"><flowRegion
           id="flowRegion3778-0"><rect
             y="60"
             x="52"
             height="71"
             width="29"
             id="rect3780-1" /></flowRegion><flowPara
           id="flowPara3782-2" /></flowRoot>      <text
         sodipodi:linespacing="125%"
         id="text5084-5"
         y="3368.0371"
         x="4676.4058"
         style="font-style:normal;font-weight:normal;font-size:40px;line-height:125%;font-family:Sans;letter-spacing:0px;word-spacing:0px;fill:#000000;fill-opacity:1;stroke:none"
         xml:space="preserve"><tspan
           y="3368.0371"
           x="4676.4058"
           id="tspan5086-5"
           sodipodi:role="line" /></text>
      <flowRoot
         transform="matrix(1.0806452,0,0,1.0806452,-202.19358,825.51933)"
         style="font-style:normal;font-weight:normal;font-size:40px;line-height:125%;font-family:Sans;letter-spacing:0px;word-spacing:0px;fill:#000000;fill-opacity:1;stroke:none;stroke-width:1px;stroke-linecap:butt;stroke-linejoin:miter;stroke-opacity:1"
         id="flowRoot5144"
         xml:space="preserve"><flowRegion
           id="flowRegion5146"><rect
             y="60"
             x="52"
             height="71"
             width="29"
             id="rect5148" /></flowRegion><flowPara
           id="flowPara5150" /></flowRoot>      <text
         sodipodi:linespacing="125%"
         id="text5152"
         y="4465.1724"
         x="4851.3418"
         style="font-style:normal;font-weight:normal;font-size:43.22580719px;line-height:125%;font-family:Sans;letter-spacing:0px;word-spacing:0px;fill:#000000;fill-opacity:1;stroke:none"
         xml:space="preserve"><tspan
           y="4465.1724"
           x="4851.3418"
           id="tspan5154"
           sodipodi:role="line" /></text>
      <flowRoot
         transform="matrix(1.3548387,0,0,1.3548387,21,866.71049)"
         style="font-style:normal;font-weight:normal;font-size:40px;line-height:125%;font-family:Sans;letter-spacing:0px;word-spacing:0px;fill:#000000;fill-opacity:1;stroke:none;stroke-width:1px;stroke-linecap:butt;stroke-linejoin:miter;stroke-opacity:1"
         id="flowRoot5388"
         xml:space="preserve"><flowRegion
           id="flowRegion5390"><rect
             y="60"
             x="52"
             height="71"
             width="29"
             id="rect5392" /></flowRegion><flowPara
           id="flowPara5394" /></flowRoot>      <text
         sodipodi:linespacing="125%"
         id="text5396"
         y="5429.8574"
         x="6356.7754"
         style="font-style:normal;font-weight:normal;font-size:54.1935463px;line-height:125%;font-family:Sans;letter-spacing:0px;word-spacing:0px;fill:#000000;fill-opacity:1;stroke:none"
         xml:space="preserve"><tspan
           y="5429.8574"
           x="6356.7754"
           id="tspan5398"
           sodipodi:role="line" /></text>
      <flowRoot
         transform="translate(1695.4867,-203.46335)"
         style="font-style:normal;font-weight:normal;font-size:40px;line-height:125%;font-family:Sans;letter-spacing:0px;word-spacing:0px;fill:#000000;fill-opacity:1;stroke:none;stroke-width:1px;stroke-linecap:butt;stroke-linejoin:miter;stroke-opacity:1"
         id="flowRoot3776-2"
         xml:space="preserve"><flowRegion
           id="flowRegion3778-7"><rect
             y="60"
             x="52"
             height="71"
             width="29"
             id="rect3780-0" /></flowRegion><flowPara
           id="flowPara3782-5" /></flowRoot>      <text
         sodipodi:linespacing="125%"
         id="text5084-7"
         y="3164.5737"
         x="6371.8926"
         style="font-style:normal;font-weight:normal;font-size:40px;line-height:125%;font-family:Sans;letter-spacing:0px;word-spacing:0px;fill:#000000;fill-opacity:1;stroke:none"
         xml:space="preserve"><tspan
           y="3164.5737"
           x="6371.8926"
           id="tspan5086-0"
           sodipodi:role="line" /></text>
      <path
         inkscape:connector-curvature="0"
         id="path6760"
         d="m 42,561.36218 c -11.634,0 -21,9.366 -21,21 l 0,96.5 0,117.5 0,117.5 0,96.50002 c 0,11.634 9.366,21 21,21 l 33.2305,0 394.7695,0 c 11.634,0 21,-9.366 21,-21 l 0,-428.00002 c 0,-11.634 -9.366,-21 -21,-21 l -394.7695,0 -33.2305,0 z"
         style="fill:#399ed7;fill-opacity:1;fill-rule:nonzero;stroke:none" />
      <g
         id="g6919">
        <rect
           style="fill:#ffffff;fill-opacity:0.25098039;fill-rule:nonzero;stroke:none"
           id="rect6762"
           width="94"
           height="94.000023"
           x="21"
           y="655.36218" />
        <rect
           y="655.36218"
           x="115"
           height="94.000023"
           width="94"
           id="rect6764"
           style="fill:#ffffff;fill-opacity:0.1254902;fill-rule:nonzero;stroke:none" />
        <rect
           style="fill:#ffffff;fill-opacity:0;fill-rule:nonzero;stroke:none"
           id="rect6766"
           width="94"
           height="94.000023"
           x="209"
           y="655.36218" />
        <rect
           y="655.36218"
           x="303"
           height="94.000023"
           width="94"
           id="rect6768"
           style="fill:#ffffff;fill-opacity:0.25098039;fill-rule:nonzero;stroke:none" />
        <rect
           y="749.36218"
           x="21"
           height="94.000023"
           width="94"
           id="rect6770"
           style="fill:#ffffff;fill-opacity:0;fill-rule:nonzero;stroke:none" />
        <rect
           style="fill:#ffffff;fill-opacity:0.25098039;fill-rule:nonzero;stroke:none"
           id="rect6772"
           width="94"
           height="94.000023"
           x="115"
           y="749.36218" />
        <rect
           y="749.36218"
           x="209"
           height="94.000023"
           width="94"
           id="rect6774"
           style="fill:#ffffff;fill-opacity:0.37647059;fill-rule:nonzero;stroke:none" />
        <rect
           style="fill:#ffffff;fill-opacity:0.1254902;fill-rule:nonzero;stroke:none"
           id="rect6776"
           width="94"
           height="94.000023"
           x="303"
           y="749.36218" />
        <rect
           style="fill:#ffffff;fill-opacity:0.25098039;fill-rule:nonzero;stroke:none"
           id="rect6778"
           width="94"
           height="94.000023"
           x="21"
           y="843.36212" />
        <rect
           y="843.36212"
           x="115"
           height="94.000023"
           width="94"
           id="rect6780"
           style="fill:#ffffff;fill-opacity:0.1254902;fill-rule:nonzero;stroke:none" />
        <rect
           style="fill:#ffffff;fill-opacity:0.25098039;fill-rule:nonzero;stroke:none"
           id="rect6782"
           width="94"
           height="94.000023"
           x="209"
           y="843.36212" />
        <rect
           y="843.36212"
           x="303"
           height="94.000023"
           width="94"
           id="rect6784"
           style="fill:#ffffff;fill-opacity:0.37647059;fill-rule:nonzero;stroke:none" />
        <path
           inkscape:connector-curvature="0"
           style="fill:#ffffff;fill-opacity:0.1254902;fill-rule:nonzero;stroke:none"
           d="m 21,937.36218 0,73.00002 c 0,11.634 9.366,21 21,21 l 73,0 0,-94.00002 -94,0 z"
           id="path6786" />
        <rect
           style="fill:#ffffff;fill-opacity:0.25098039;fill-rule:nonzero;stroke:none"
           id="rect6788"
           width="94"
           height="94.000023"
           x="115"
           y="937.36212" />
        <rect
           y="937.36212"
           x="209"
           height="94.000023"
           width="94"
           id="rect6790"
           style="fill:#ffffff;fill-opacity:0.1254902;fill-rule:nonzero;stroke:none" />
        <rect
           style="fill:#ffffff;fill-opacity:0.25098039;fill-rule:nonzero;stroke:none"
           id="rect6792"
           width="94"
           height="94.000023"
           x="303"
           y="937.36212" />
        <rect
           y="655.36218"
           x="397"
           height="94.000023"
           width="94"
           id="rect6794"
           style="fill:#ffffff;fill-opacity:0.1254902;fill-rule:nonzero;stroke:none" />
        <rect
           style="fill:#ffffff;fill-opacity:0;fill-rule:nonzero;stroke:none"
           id="rect6796"
           width="94"
           height="94.000023"
           x="397"
           y="749.36218" />
        <rect
           y="843.36212"
           x="397"
           height="94.000023"
           width="94"
           id="rect6798"
           style="fill:#ffffff;fill-opacity:0.25098039;fill-rule:nonzero;stroke:none" />
        <path
           inkscape:connector-curvature="0"
           style="fill:#ffffff;fill-opacity:0.1254902;fill-rule:nonzero;stroke:none"
           d="m 397,937.36218 0,94.00002 73,0 c 11.634,0 21,-9.366 21,-21 l 0,-73.00002 -94,0 z"
           id="path6800" />
        <path
           inkscape:connector-curvature="0"
           style="fill:#ffffff;fill-opacity:0.37647059;fill-rule:nonzero;stroke:none"
           d="m 42,561.36218 c -11.634,0 -21,9.366 -21,21 l 0,73 94,0 0,-94 -73,0 z"
           id="path6802" />
        <rect
           style="fill:#ffffff;fill-opacity:0.25098039;fill-rule:nonzero;stroke:none"
           id="rect6804"
           width="94"
           height="94.000023"
           x="115"
           y="561.36218" />
        <rect
           y="561.36218"
           x="209"
           height="94.000023"
           width="94"
           id="rect6806"
           style="fill:#ffffff;fill-opacity:0.37647059;fill-rule:nonzero;stroke:none" />
        <rect
           style="fill:#ffffff;fill-opacity:0.1254902;fill-rule:nonzero;stroke:none"
           id="rect6808"
           width="94"
           height="94.000023"
           x="303"
           y="561.36218" />
        <path
           inkscape:connector-curvature="0"
           style="fill:#ffffff;fill-opacity:0.25098039;fill-rule:nonzero;stroke:none"
           d="m 397,561.36218 0,94 94,0 0,-73 c 0,-11.634 -9.366,-21 -21,-21 l -73,0 z"
           id="path6810" />
      </g>
      <path
         sodipodi:nodetypes="ccssssc"
         inkscape:connector-curvature="0"
         id="rect6834"
         d="M 491,601.70788 21,702.0946 l 0,308.2676 c 0,11.634 9.366,21 21,21 l 428,0 c 11.634,0 21,-9.366 21,-21 z"
         style="fill:#303030;fill-opacity:1;stroke:none;stroke-width:4;stroke-linecap:butt;stroke-linejoin:miter;stroke-miterlimit:4;stroke-dasharray:none;stroke-opacity:1" />
      <path
         inkscape:connector-curvature="0"
         style="opacity:0.3;fill:url(#linearGradient6832);fill-opacity:1;stroke:none"
         d="m 406.709,713.3446 c -11.3995,11.1775 -15.0726,37.38795 -19.4082,45.27735 -14.0757,-13.117 -26.3985,-28.44003 -41.7344,-39.98243 -10.8514,-3.7699 -37.0609,-7.63137 -39.5117,5.57813 -1.5256,9.2569 2.2589,10.89312 4.5508,14.66992 4.5677,1.3648 6.0435,7.18306 10.6172,8.53906 -4.0242,2.3155 -2.1114,10.56837 -2.5098,16.50977 3.3289,1.2726 4.1247,5.0765 7.582,6.2207 1.6518,3.2488 4.5756,5.22689 7.1192,7.58399 1.7015,3.0032 5.2202,4.18823 6.5312,7.58203 -6.7213,8.4834 -12.42,-3.45754 -17.0176,-7.46094 -5.6154,-4.4498 -9.5511,-9.94718 -15.166,-14.39648 -3.982,-5.1614 -9.6686,-9.25883 -13.6504,-14.41993 -6.5334,-7.8523 -17.9846,-14.13275 -30.6738,-12.34765 -17.4587,-1.6085 -27.5812,19.74874 -29.0918,29.68554 -10.2528,-9.1486 -18.4268,-21.11838 -30.6914,-27.58398 -15.4939,-9.829 -36.2018,7.57434 -41.0078,12.08594 -3.1939,-1.7836 -3.9156,-5.37773 -7.9004,-6.58203 -1.7622,-3.0081 -2.7443,-6.58561 -9.3262,-6.06641 -6.4351,-0.082 -14.267,-1.99604 -13.7011,7.09766 -1.9964,3.4077 -2.3065,16.85789 -5.6055,13.12109 -2.7701,-1.7503 -4.3852,-5.01786 -7.3067,-6.56836 -2.1606,-2.9883 -4.7153,-5.45708 -7.5312,-7.58398 -2.5949,-2.6516 -4.0201,-6.83691 -9.2246,-6.06641 -5.4781,0.6537 -16.815,-2.98053 -10.8906,6.00977 l 18.4941,58.09961 c 3.8705,2.3582 6.1828,6.8512 10.1328,9.0996 2.6188,4.0816 6.4726,6.46972 9.418,10.10352 3.1145,3.16938 6.5588,5.88548 9.2656,9.61328 3.8698,2.35808 6.1826,6.85049 10.1328,9.09961 2.6179,4.07966 6.4702,6.47038 9.416,10.10156 3.1131,3.17067 6.5581,5.88601 9.2637,9.61328 2.2656,2.5068 11.4366,7.21282 1.998,7.33008 -2.5513,2.07314 -2.5776,14.38915 -0.021,15.24805 1.6123,3.52642 4.61,5.27936 7.0859,7.70508 1.7533,3.16611 5.3475,3.97869 6.5625,7.83398 4.6026,0.49432 1.5425,10.77711 2.4356,16.00977 l 0,19.94922 c -5.9597,0.6898 -14.6877,-1.38803 -18.8985,1.05078 0.7662,5.20292 -2.0619,13.99893 2.5664,15.33984 1.7024,3.00239 5.2214,4.19099 6.5332,7.58399 3.2492,1.65136 5.2262,4.57446 7.5821,7.11914 3.0042,1.70055 4.1888,5.21966 7.582,6.53125 1.6527,3.24781 4.5748,5.22577 7.1191,7.58203 1.7018,3.00295 5.2202,4.19022 6.5313,7.58398 3.2489,1.65164 5.2285,4.5721 7.584,7.11719 3.0034,1.70139 4.1897,5.22067 7.582,6.53321 1.6518,3.2488 4.5756,5.2249 7.1191,7.582 1.7015,3.0033 5.2203,4.1882 6.5313,7.5821 3.2488,1.651 5.2245,4.5747 7.582,7.1171 3.0012,1.7036 4.1898,5.2208 7.584,6.5313 0.3794,0.7479 0.8319,1.4217 1.3262,2.0547 l 220.332,0 c 11.634,0 21,-9.366 21,-21 l 0,-224.5469 c -10.3022,-10.29319 -36.3222,-35.63014 -37.4277,-37.58984 -2.2559,-2.4807 -6.0671,-4.02863 -6.5313,-7.58203 -4.8969,-0.7659 -3.9353,-5.03835 -8.3965,-6.06445 -1.4043,-3.1552 -4.1596,-5.50249 -7.3554,-7.58399 -1.1396,-3.1492 -4.9493,-4.69923 -6.5313,-7.58203 -3.9458,-1.5014 -2.7198,-6.09796 -9.2226,-6.06836 -2.9423,0 -5.884,-10e-5 -8.8262,0 z m -83.9727,35.59961 c 0.3653,0.8226 -2.0454,0.01 0,0 z"
         id="path6814" />
      <path
         id="path6816"
         d="m 406.7094,713.34506 c -6.0315,8.70389 -10.5574,17.39501 -13.535,26.02231 -2.9393,8.58919 -4.3998,17.29171 -4.3998,26.14809 0,8.89449 1.4605,17.64257 4.3998,26.23162 2.9394,8.55114 7.4653,17.24601 13.535,26.06436 l 13.032,0 c -5.0389,-9.16184 -8.7452,-18.01982 -11.1882,-26.60898 -2.4432,-8.62731 -3.6876,-17.21244 -3.6876,-25.687 0,-8.55089 1.2444,-17.09425 3.6876,-25.64512 2.443,-8.55103 6.1493,-17.40159 11.1882,-26.52528 l -13.032,0 z"
         style="fill:#ffffff;fill-opacity:1;stroke:none"
         inkscape:connector-curvature="0" />
      <path
         id="path6818"
         d="m 328.6425,715.31442 c -3.512,1.4e-4 -7.1614,0.31502 -10.9789,0.96386 -3.8173,0.61095 -7.6754,1.49852 -11.6073,2.68187 l 0,15.37877 c 3.9319,-1.52685 7.7332,-2.71829 11.3979,-3.51985 3.6646,-0.80158 7.0598,-1.1733 10.2664,-1.1733 4.1991,0 7.4732,0.8877 9.7636,2.68188 2.3286,1.75591 3.478,4.20659 3.478,7.37503 0,3.01572 -1.1494,5.36014 -3.478,7.03988 -2.2904,1.64144 -5.5645,2.47219 -9.7636,2.47219 l -9.0093,0 0,14.87579 9.0093,0 c 4.8863,1.5e-4 8.6838,1.19895 11.356,3.60384 2.672,2.36673 4.0227,5.75077 4.0227,10.1406 0,3.58851 -1.3507,6.4527 -4.0227,8.59038 -2.6722,2.09967 -6.3142,3.14291 -10.895,3.14278 -4.5809,1.3e-4 -8.955,-0.46655 -13.116,-1.38273 -4.1609,-0.95445 -8.019,-2.31244 -11.6073,-4.10665 l 0,15.67205 c 3.8173,1.37437 7.8235,2.4594 11.9845,3.18469 4.1991,0.72529 8.425,1.0896 12.7388,1.0896 10.116,0 17.8247,-2.18524 23.1309,-6.53707 5.3062,-4.35181 7.9617,-10.65671 7.9617,-18.94054 0,-6.18426 -1.5705,-11.18049 -4.777,-14.95976 -3.2067,-3.81729 -7.8881,-6.26421 -13.9959,-7.33312 5.3825,-0.99248 9.5442,-3.07885 12.4454,-6.28558 2.9012,-3.24475 4.358,-7.41023 4.358,-12.48732 0,-6.90942 -2.5456,-12.32679 -7.5845,-16.25865 -5.0391,-3.93189 -12.0686,-5.9085 -21.0777,-5.90864 z"
         style="fill:#399ed7;fill-opacity:1;stroke:none"
         inkscape:connector-curvature="0" />
      <path
         id="path6820"
         d="m 267.0438,736.55977 c -9.887,0 -17.6451,2.97418 -23.2566,8.96745 -5.6116,5.95524 -8.4227,14.23301 -8.4227,24.80712 0,10.53596 2.8075,18.76806 8.3808,24.7233 5.5734,5.95511 13.2858,8.96746 23.1729,8.96746 3.741,0 7.231,-0.41739 10.4759,-1.25725 3.2448,-0.80159 6.3101,-2.04607 9.1351,-3.68753 l 0,-15.37876 c -2.5196,2.21413 -5.2208,3.83769 -8.0456,4.94477 -2.8249,1.06891 -5.8484,1.63419 -9.0932,1.63419 -5.4589,0 -9.6737,-1.71855 -12.613,-5.15406 -2.9394,-3.43578 -4.3999,-8.37892 -4.3999,-14.79212 0,-6.41332 1.4605,-11.36012 4.3999,-14.83404 2.9393,-3.47378 7.1541,-5.19597 12.613,-5.19597 3.1303,0 6.15,0.57281 9.0512,1.7179 2.9395,1.10718 5.6444,2.71963 8.0876,4.81902 l 0,-15.37877 c -3.1685,-1.67946 -6.3895,-2.8858 -9.5961,-3.68751 -3.1684,-0.80145 -6.4536,-1.2152 -9.8893,-1.2152 z"
         style="fill:#399ed7;fill-opacity:1;stroke:none"
         inkscape:connector-curvature="0" />
      <path
         id="path6822"
         d="m 89.2458,738.23628 20.4071,64.11284 20.6587,0 20.3653,-64.11284 -17.013,0 -13.7026,50.03311 -13.7025,-50.03311 -17.013,0 z"
         style="fill:#399ed7;fill-opacity:1;stroke:none"
         inkscape:connector-curvature="0" />
      <path
         d="m 190.9884,749.67592 c 4.2754,1.2e-4 7.5038,1.14573 9.6797,3.43631 2.2141,2.25213 3.3598,5.58676 3.4361,10.01487 l -26.3994,0.0417 c 0.42,-4.31366 1.7743,-7.60261 4.0647,-9.93133 2.2905,-2.36672 5.3633,-3.56163 9.2189,-3.56177 z m -1.7181,-12.99002 c -8.607,0.3556 -15.499,3.40286 -20.6167,9.09306 -5.4588,6.06971 -8.1712,14.34746 -8.1712,24.80699 0,10.80329 2.8148,19.08469 8.4645,24.84904 5.688,5.72607 13.9127,8.59024 24.6395,8.59024 4.5044,0 8.7761,-0.4135 12.8226,-1.2152 4.0464,-0.80159 8.0069,-2.0004 11.9007,-3.6037 l 0,-15.42054 c -4.0847,2.40488 -7.992,4.17287 -11.7331,5.27968 -3.741,1.10719 -7.5423,1.67638 -11.3978,1.67624 -5.8407,1.4e-4 -10.2186,-1.248 -13.1578,-3.72944 -2.9395,-2.48119 -4.4456,-6.23305 -4.4838,-11.27199 l 43.4543,0 0,-6.83044 c 0,-10.23061 -2.6099,-18.14795 -7.8779,-23.75956 -5.2299,-5.6495 -12.62,-8.46438 -22.1252,-8.46438 -0.5894,0 -1.1442,-0.0241 -1.7181,0 z"
         style="fill:#399ed7;fill-opacity:1;stroke:none"
         id="path6824"
         inkscape:connector-curvature="0" />
      <path
         id="path6826"
         d="m 185.4264,863.44492 -17.6835,4.23225 0,15.25302 17.5997,-4.35799 0,55.48069 -18.8986,0 0,14.87594 54.2236,0 0,-14.87594 -18.8987,0 0,-70.60797 -16.3425,0 z"
         style="fill:#7ba212;fill-opacity:1;stroke:none"
         inkscape:connector-curvature="0" />
      <path
         id="path6828"
         d="m 251.9279,927.93497 0,20.99386 19.0661,0 0,-20.99386 -19.0661,0 z"
         style="fill:#7ba212;fill-opacity:1;stroke:none"
         inkscape:connector-curvature="0" />
      <rect
         style="fill:#ffffff;fill-opacity:1;stroke:#ffffff;stroke-width:0.91005695"
         id="rect6830"
         width="13.280861"
         height="152.97218"
         x="317.20898"
         y="833.29565" />
    </g>
    <g
       id="g4345"
       transform="matrix(1.0403599,-0.10055885,0.10055885,1.0403599,-28.257861,-268.73645)">
      <path
         transform="matrix(-0.71624605,0,0,0.71624605,252.9668,272.6866)"
         id="path4155"
         d="m 70.800257,803.10815 c 18.72634,-10.81207 42.064013,-4.55865 52.875453,14.16738 6.21553,10.76497 6.67525,22.98383 2.43735,33.71348 9.95484,0.22482 20.00712,3.82743 29.87632,9.35284 5.70581,-16.36426 17.92669,-30.34 32.41043,-37.86744 a 7.6098878,7.6098878 0 0 1 2.05397,-0.12843 7.6098878,7.6098878 0 0 1 2.05385,-0.12842 7.6098878,7.6098878 0 0 1 3.78076,1.01708 7.6098878,7.6098878 0 0 1 2.18403,1.941 7.6098878,7.6098878 0 0 1 1.16879,5.70957 7.6098878,7.6098878 0 0 1 -0.34046,1.25368 7.6098878,7.6098878 0 0 1 -0.34045,1.25368 7.6098878,7.6098878 0 0 1 -1.13869,1.71405 7.6098878,7.6098878 0 0 1 -2.39442,1.38323 c -12.33033,6.40652 -22.54596,18.62752 -26.1492,32.12255 6.50822,5.40015 12.37934,12.05934 17.69138,19.58251 2.94622,-3.19898 6.27645,-6.41509 9.78804,-8.85073 10.09338,-6.95039 22.03067,-10.77888 33.55578,-11.9223 a 7.6098878,7.6098878 0 0 1 1.25571,0.33189 7.6098878,7.6098878 0 0 1 2.51017,0.66378 7.6098878,7.6098878 0 0 1 2.18447,1.94102 7.6098878,7.6098878 0 0 1 2.42684,6.04679 7.6098878,7.6098878 0 0 1 -1.00849,3.78247 7.6098878,7.6098878 0 0 1 -1.5963,0.92072 7.6098878,7.6098878 0 0 1 -1.59626,0.92072 7.6098878,7.6098878 0 0 1 -2.85201,0.58884 c -13.65036,1.36931 -27.8309,8.78649 -36.37383,19.9433 4.14518,8.3272 7.21579,16.27327 8.91185,24.65187 15.54086,-3.62622 31.79047,-2.0192 45.28817,4.71176 a 7.6098878,7.6098878 0 0 1 1.71243,1.12411 7.6098878,7.6098878 0 0 1 1.84305,3.19152 7.6098878,7.6098878 0 0 1 0.45715,0.79218 7.6098878,7.6098878 0 0 1 0.58777,2.8607 7.6098878,7.6098878 0 0 1 -0.34045,1.25368 7.6098878,7.6098878 0 0 1 -0.34046,1.25368 7.6098878,7.6098878 0 0 1 -1.1386,1.71511 7.6098878,7.6098878 0 0 1 -1.1387,1.71411 7.6098878,7.6098878 0 0 1 -2.05385,0.12842 7.6098878,7.6098878 0 0 1 -1.59627,0.92073 7.6098878,7.6098878 0 0 1 -1.25582,-0.33184 7.6098878,7.6098878 0 0 1 -2.51059,-0.66378 7.6098878,7.6098878 0 0 1 -1.25572,-0.33193 c -10.93219,-5.45468 -24.04674,-6.71593 -36.1414,-3.61644 0.84257,22.7793 -7.86138,42.849 -24.91405,52.6953 -17.24869,9.95781 -39.08043,6.90761 -58.55086,-5.565 -8.96849,9.0596 -14.53598,22.16701 -15.27897,34.36191 a 7.6098878,7.6098878 0 0 1 0.11664,2.0437 7.6098878,7.6098878 0 0 1 -0.34045,1.2537 7.6098878,7.6098878 0 0 1 -0.79867,0.4604 7.6098878,7.6098878 0 0 1 -1.1387,1.7141 7.6098878,7.6098878 0 0 1 -0.79761,0.4603 7.6098878,7.6098878 0 0 1 -1.59628,0.9207 7.6098878,7.6098878 0 0 1 -2.05385,0.129 7.6098878,7.6098878 0 0 1 -2.053973,0.1289 7.6098878,7.6098878 0 0 1 -4.69933,-2.6091 7.6098878,7.6098878 0 0 1 -0.45715,-0.7922 7.6098878,7.6098878 0 0 1 -1.04491,-3.6529 7.6098878,7.6098878 0 0 1 0.34045,-1.2527 c 0.91965,-15.0554 7.652193,-29.93151 18.564363,-41.57551 -6.41905,-5.6678 -12.547323,-11.8152 -17.691493,-19.58247 -13.6403,2.06297 -26.80473,10.14937 -34.66043,21.06847 a 7.6098878,7.6098878 0 0 1 -0.34045,1.2537 7.6098878,7.6098878 0 0 1 -0.79761,0.4604 7.6098878,7.6098878 0 0 1 -5.24642,1.9721 7.6098878,7.6098878 0 0 1 -1.25572,-0.3319 7.6098878,7.6098878 0 0 1 -4.23746,-1.8104 7.6098878,7.6098878 0 0 1 -0.45714,-0.7923 7.6098878,7.6098878 0 0 1 -1.04492,-3.6539 7.6098878,7.6098878 0 0 1 -0.45822,-0.7923 7.6098878,7.6098878 0 0 1 1.00851,-3.7825 7.6098878,7.6098878 0 0 1 0.34045,-1.2536 c 6.76957,-9.3808 16.03633,-17.83431 27.10278,-23.09844 3.86662,-1.82118 8.31639,-3.09838 12.56029,-4.05121 -3.85055,-8.35079 -6.69506,-16.79143 -8.11382,-25.11222 -13.48882,-3.62722 -29.18257,-0.8993 -40.89482,6.58318 a 7.6098878,7.6098878 0 0 1 -1.59627,0.92073 7.6098878,7.6098878 0 0 1 -2.05386,0.12842 7.6098878,7.6098878 0 0 1 -2.05396,0.12843 7.6098878,7.6098878 0 0 1 -3.78033,-1.01711 7.6098878,7.6098878 0 0 1 -0.45714,-0.79226 7.6098878,7.6098878 0 0 1 -1.84348,-3.19254 7.6098878,7.6098878 0 0 1 -0.45715,-0.79225 7.6098878,7.6098878 0 0 1 0.55137,-4.57469 7.6098878,7.6098878 0 0 1 1.59627,-0.92074 7.6098878,7.6098878 0 0 1 0.34046,-1.25368 7.6098878,7.6098878 0 0 1 0.79759,-0.46035 7.6098878,7.6098878 0 0 1 0.34046,-1.25262 c 13.75648,-8.78862 31.97364,-12.37945 48.99964,-9.13551 0.14989,-11.34095 2.02912,-21.8008 6.83756,-30.5509 -11.50435,-1.63589 -22.5161,-7.66449 -28.77541,-18.50548 -10.81155,-18.72602 -3.76051,-42.52566 14.96583,-53.33667 z"
         style="fill:#f9f9f9;fill-opacity:1;stroke:none"
         inkscape:connector-curvature="0" />
      <path
         id="path3847"
         d="m 172.88153,898.78816 c 1.83132,1.05745 -6.95107,19.96031 -20.00325,42.56771 -13.05188,22.60654 -25.3621,40.23658 -27.19342,39.17911 -1.83139,-1.05746 7.28157,-20.53316 20.33346,-43.13977 13.05218,-22.60659 25.03181,-39.66449 26.86321,-38.60705 z"
         style="fill:#e6e6e6;fill-opacity:1;stroke:none"
         inkscape:connector-curvature="0" />
    </g>
  </g>
</svg>
